<?xml version="1.0" standalone="no"?>
<!DOCTYPE svg PUBLIC "-//W3C//DTD SVG 1.1//EN" "http://www.w3.org/Graphics/SVG/1.1/DTD/svg11.dtd" >
<svg xmlns="http://www.w3.org/2000/svg">
<metadata>Generated by IcoMoon</metadata>
<defs>
<font id="icomoon" horiz-adv-x="512">
<font-face units-per-em="512" ascent="480" descent="-32" />
<missing-glyph horiz-adv-x="512" />
<glyph unicode="&#x20;" horiz-adv-x="256" d="" />
<glyph unicode="&#xe617;" glyph-name="Alarm-Clock" d="M295.936 25.6c-87.074 0-157.867 70.793-157.867 157.866 0 87.057 70.792 157.866 157.867 157.866 87.057 0 157.867-70.809 157.867-157.866 0-87.074-70.844-157.866-157.866-157.866zM295.936 324.267c-77.654 0-140.8-63.163-140.8-140.8s63.147-140.8 140.8-140.8c77.637 0 140.8 63.163 140.8 140.8s-63.163 140.8-140.8 140.8zM504.986 217.6c-3.976 0-7.526 2.799-8.363 6.844-9.95 49.016-37.581 92.638-77.824 122.88-3.772 2.833-4.522 8.175-1.707 11.947 2.833 3.772 8.175 4.522 11.947 1.69 43.571-32.717 73.506-80.009 84.275-133.12 0.956-4.625-2.048-9.114-6.673-10.052-0.529-0.137-1.11-0.188-1.656-0.188zM167.919 4.216c-1.775 0-3.584 0.563-5.137 1.724-16.793 12.663-31.727 27.597-44.356 44.373-2.833 3.772-2.082 9.13 1.689 11.964 3.789 2.816 9.113 2.065 11.947-1.707 11.656-15.497 25.447-29.269 40.977-40.977 3.772-2.833 4.523-8.175 1.69-11.947-1.655-2.253-4.232-3.43-6.809-3.43zM436.923 155.733h68.267v-17.067h-68.267v17.067zM317.457 36.267h17.067v-68.267h-17.067v68.267zM112.657 206.933h34.134v-17.067h-34.133v17.067zM283.324 360.534h17.067v-34.134h-17.067v34.134zM359.936 110.933c-2.202 0-4.386 0.837-6.041 2.491l-64 64c-3.328 3.328-3.328 8.738 0 12.066 3.328 3.311 8.738 3.311 12.066 0l64-64c3.328-3.328 3.328-8.738 0-12.066-1.656-1.656-3.84-2.491-6.024-2.491zM295.936 174.933c-2.202 0-4.386 0.837-6.041 2.491-3.328 3.328-3.328 8.738 0 12.066l42.666 42.666c3.328 3.328 8.738 3.328 12.066 0s3.328-8.721 0-12.066l-42.666-42.666c-1.656-1.656-3.84-2.491-6.024-2.491zM391.936 360.534c-4.711 0-8.534 3.823-8.534 8.534 0 52.634-43.111 93.866-98.133 93.866-55.040 0-98.133-41.233-98.133-93.866 0-4.711-3.84-8.534-8.534-8.534-4.71 0-8.534 3.823-8.534 8.534 0 62.208 50.602 110.933 115.2 110.933 64.581 0 115.2-48.726 115.2-110.933 0-4.711-3.84-8.534-8.534-8.534zM385.724 360.534h-204.8c-4.71 0-8.534 3.823-8.534 8.534s3.806 8.534 8.534 8.534h204.8c4.694 0 8.534-3.823 8.534-8.534s-3.84-8.534-8.534-8.534zM121.191 79.803c-65.349 0-122.675 53.829-122.675 115.2s57.327 115.2 122.675 115.2c4.694 0 8.533-3.823 8.533-8.534s-3.84-8.534-8.534-8.534c-56.251 0-105.609-45.858-105.609-98.134s49.374-98.134 105.609-98.134c4.694 0 8.534-3.84 8.534-8.534s-3.84-8.534-8.534-8.534zM121.191 78.933c-4.71 0-8.534 3.84-8.534 8.534v204.8c0 4.71 3.823 8.534 8.534 8.534 4.694 0 8.533-3.823 8.533-8.534v-204.8c0-4.693-3.84-8.534-8.534-8.534z" />
<glyph unicode="&#xe623;" glyph-name="Align-Right" d="M494.933 352h-477.866c-4.71 0-8.534 3.823-8.534 8.534s3.823 8.534 8.534 8.534h477.866c4.693 0 8.534-3.823 8.534-8.534s-3.84-8.534-8.534-8.534zM392.534 283.733h-375.466c-4.71 0-8.534 3.823-8.534 8.534s3.823 8.534 8.534 8.534h375.466c4.693 0 8.534-3.823 8.534-8.534s-3.84-8.534-8.534-8.534zM187.733 215.466h-170.667c-4.71 0-8.534 3.823-8.534 8.534s3.823 8.534 8.534 8.534h170.667c4.71 0 8.534-3.823 8.534-8.534s-3.823-8.534-8.534-8.534zM341.334 147.2h-324.267c-4.71 0-8.534 3.84-8.534 8.534s3.823 8.534 8.534 8.534h324.267c4.694 0 8.534-3.84 8.534-8.534s-3.84-8.534-8.534-8.534zM273.067 78.933h-256c-4.71 0-8.534 3.84-8.534 8.534s3.823 8.534 8.534 8.534h256c4.693 0 8.534-3.84 8.534-8.534s-3.84-8.534-8.534-8.534z" />
<glyph unicode="&#xe631;" glyph-name="Approved-Window" d="M503.466 10.666h-494.933c-4.71 0-8.534 3.84-8.534 8.534v409.6c0 4.71 3.823 8.534 8.534 8.534h494.933c4.693 0 8.534-3.823 8.534-8.534v-409.6c0-4.694-3.84-8.534-8.534-8.534zM17.067 27.733h477.866v392.534h-477.866v-392.534zM494.933 334.933h-477.866c-4.71 0-8.534 3.823-8.534 8.534s3.823 8.534 8.534 8.534h477.866c4.693 0 8.534-3.823 8.534-8.534s-3.84-8.534-8.534-8.534zM381.406 61.337c-39.987 0-72.534 32.529-72.534 72.534 0 40.022 32.546 72.534 72.534 72.534 40.005 0 72.534-32.512 72.534-72.534 0-40.005-32.546-72.534-72.534-72.534zM381.406 189.337c-30.567 0-55.466-24.866-55.466-55.466 0-30.567 24.901-55.466 55.466-55.466 30.601 0 55.466 24.901 55.466 55.466 0 30.601-24.866 55.466-55.466 55.466zM388.079 105.728c-2.065 0-4.13 0.768-5.786 2.27l-21.334 19.558c-3.464 3.209-3.704 8.584-0.495 12.049 3.209 3.481 8.601 3.704 12.049 0.512l15.377-14.131 79.531 77.927c3.379 3.26 8.772 3.226 12.101-0.137 3.277-3.362 3.226-8.772-0.137-12.066l-85.334-83.558c-1.656-1.587-3.823-2.423-5.974-2.423zM68.079 381.866c0-5.888-4.779-10.666-10.666-10.666s-10.666 4.779-10.666 10.666c0 5.888 4.779 10.667 10.666 10.667s10.666-4.779 10.666-10.667zM110.746 381.866c0-5.888-4.778-10.666-10.666-10.666s-10.666 4.779-10.666 10.666c0 5.888 4.778 10.667 10.666 10.667s10.666-4.779 10.666-10.667zM153.412 381.866c0-5.888-4.779-10.666-10.667-10.666s-10.666 4.779-10.666 10.666c0 5.888 4.779 10.667 10.666 10.667s10.666-4.779 10.666-10.667z" />
<glyph unicode="&#xe671;" glyph-name="Astronaut" d="M255.813 461.858c82.483 0 149.333-66.85 149.333-149.334s-66.85-149.333-149.333-149.333-149.333 66.85-149.333 149.333 66.85 149.334 149.333 149.334zM255.813 478.925c-91.75 0-166.4-74.65-166.4-166.4s74.65-166.4 166.4-166.4 166.4 74.649 166.4 166.4-74.649 166.4-166.4 166.4v0zM424.346 312.525h-17.067c0 36.471-29.662 66.134-66.134 66.134h-171.333c-36.471 0-66.133-29.662-66.133-66.134h-17.067c0 45.875 37.325 83.2 83.2 83.2h171.333c45.875 0 83.2-37.325 83.2-83.2zM452.267 267.725c-4.694 0-8.534 3.823-8.534 8.534v136.534c0 4.71 3.84 8.534 8.534 8.534s8.534-3.823 8.534-8.534v-136.534c0-4.694-3.84-8.534-8.534-8.534zM249.787 87.978c-6.332 0-12.68 0.222-19.064 0.666-57.634 4.010-103.85 25.566-126.84 59.050-0.973 1.416-1.485 3.106-1.485 4.83v72.534c0 4.71 3.823 8.534 8.534 8.534s8.534-3.823 8.534-8.534v-69.82c20.31-27.579 62.089-46.046 112.452-49.545 63.949-4.488 126.635 15.173 160.615 50.21v69.154c0 4.71 3.84 8.534 8.534 8.534s8.534-3.823 8.534-8.534v-72.534c0-2.134-0.802-4.181-2.236-5.752-33.467-36.608-93.866-58.794-157.577-58.794zM341.334 327.458h-51.2c-4.693 0-8.534 3.823-8.534 8.534s3.84 8.534 8.534 8.534h51.2c4.694 0 8.534-3.823 8.534-8.534s-3.84-8.534-8.534-8.534zM368.009 295.458c-4.711 0-8.534 3.823-8.534 8.534 0 5.495-1.331 23.466-18.329 23.466-4.711 0-8.534 3.823-8.534 8.534s3.823 8.534 8.534 8.534c21.163 0 35.397-16.281 35.397-40.534 0-4.693-3.823-8.534-8.534-8.534zM452.267 242.125h-34.133c-4.693 0-8.534 3.823-8.534 8.534v119.466c0 4.711 3.84 8.534 8.534 8.534h34.134c4.693 0 8.534-3.823 8.534-8.534v-119.466c0-4.694-3.84-8.534-8.534-8.534zM426.666 259.192h17.067v102.4h-17.067v-102.4zM93.867 242.125h-34.133c-4.71 0-8.534 3.823-8.534 8.534v119.466c0 4.711 3.823 8.534 8.534 8.534h34.133c4.71 0 8.534-3.823 8.534-8.534v-119.466c0-4.694-3.823-8.534-8.534-8.534zM68.266 259.192h17.067v102.4h-17.067v-102.4zM17.067 139.725h17.067v-170.667h-17.067v170.667zM25.6 131.192c-4.71 0-8.534 3.84-8.534 8.534 0 51.149 46.763 96 100.079 96 4.71 0 8.534-3.823 8.534-8.534s-3.823-8.534-8.534-8.534c-43.434 0-83.013-37.615-83.013-78.933 0-4.693-3.823-8.534-8.534-8.534zM477.866 139.725h17.067v-170.667h-17.067v170.667zM486.4 131.192c-4.693 0-8.534 3.84-8.534 8.534 0 41.318-39.748 78.933-83.387 78.933-4.711 0-8.534 3.823-8.534 8.534s3.823 8.534 8.534 8.534c53.521 0 100.454-44.851 100.454-96 0-4.693-3.84-8.534-8.534-8.534zM106.479-16.009c-28.228 0-51.2 22.971-51.2 51.2s22.971 51.2 51.2 51.2c28.229 0 51.2-22.971 51.2-51.2s-22.971-51.2-51.2-51.2zM106.479 69.325c-18.841 0-34.133-15.291-34.133-34.133s15.291-34.134 34.133-34.134c18.825 0 34.134 15.291 34.134 34.134s-15.309 34.134-34.133 34.134zM409.6 37.325h-85.334c-4.694 0-8.534 3.84-8.534 8.534s3.84 8.534 8.534 8.534h85.334c4.693 0 8.534-3.84 8.534-8.534s-3.84-8.534-8.534-8.534z" />
<glyph unicode="&#xe674;" glyph-name="Atom" d="M441.736-16.709c-62.157 0-168.704 64.802-265.182 161.263-59.443 59.426-107.691 123.17-135.816 179.439-29.526 59.017-33.416 103.834-11.008 126.242 9.608 9.608 23.227 14.473 40.533 14.473 62.157 0 168.721-64.802 265.182-161.263 59.443-59.443 107.707-123.187 135.816-179.456 29.509-59 33.416-103.834 11.025-126.225-9.642-9.591-23.262-14.473-40.55-14.473zM70.246 447.642c-12.578 0-22.169-3.192-28.45-9.472-16.555-16.554-11.383-55.398 14.2-106.547 27.358-54.665 74.427-116.822 132.625-175.002 92.024-92.024 196.113-156.245 253.115-156.245 12.595 0 22.169 3.192 28.45 9.472 16.555 16.572 11.384 55.399-14.2 106.547-27.341 54.664-74.428 116.822-132.625 175.001-92.007 91.99-196.079 156.245-253.115 156.245zM70.246-16.709v0c-17.288 0-30.925 4.864-40.533 14.473-22.409 22.409-18.5 67.226 11.008 126.225 28.109 56.269 76.356 119.995 135.816 179.456 96.478 96.461 203.025 161.263 265.182 161.263 17.288 0 30.925-4.864 40.534-14.473 22.409-22.409 18.5-67.242-11.025-126.242-28.109-56.252-76.356-119.996-135.817-179.439-96.427-96.461-202.991-161.263-265.165-161.263zM441.736 447.642c-57.002 0-161.092-64.256-253.115-156.262-58.18-58.197-105.267-120.354-132.625-175.001-25.583-51.166-30.754-89.976-14.2-106.547 6.297-6.298 15.872-9.472 28.45-9.472 57.020 0 161.093 64.256 253.115 156.245 58.18 58.197 105.284 120.337 132.625 175.001 25.583 51.166 30.754 89.993 14.2 106.547-6.298 6.315-15.872 9.489-28.45 9.489zM256 189.509c-19.012 0-34.492 15.497-34.492 34.492 0 19.012 15.48 34.492 34.492 34.492 18.995 0 34.491-15.48 34.491-34.492 0-18.995-15.497-34.492-34.492-34.492zM256 241.425c-9.608 0-17.425-7.816-17.425-17.425s7.816-17.425 17.425-17.425c9.608 0 17.425 7.834 17.425 17.425 0 9.608-7.817 17.425-17.425 17.425z" />
<glyph unicode="&#xe682;" glyph-name="Bag-Coins" d="M375.705 232.534c-4.694 0-8.534 3.823-8.534 8.534v155.733c0 40.789-27.034 66.133-70.57 66.133h-21.334c-37.939 0-78.762-20.685-78.762-66.133v-155.733c0-4.71-3.823-8.534-8.534-8.534s-8.534 3.823-8.534 8.534v155.733c0 48.214 40.294 83.2 95.829 83.2h21.334c53.231 0 87.637-32.649 87.637-83.2v-155.733c0-4.71-3.823-8.534-8.534-8.534zM333.039-32h-292.454c-2.73 0-5.325 1.314-6.912 3.55-1.605 2.202-2.048 5.051-1.194 7.663l106.666 324.267c1.143 3.499 4.421 5.871 8.107 5.871h277.334c3.67 0 6.929-2.355 8.123-5.854l46.797-141.159c1.502-4.454-0.955-9.301-5.393-10.786-4.505-1.467-9.301 0.955-10.803 5.376l-44.868 135.356h-264.994l-101.052-307.2h280.644c4.693 0 8.534-3.857 8.534-8.534s-3.823-8.55-8.534-8.55zM405.794 6.247c-22.733 0-38.024 13.278-38.024 33.075 0 4.676 3.823 8.534 8.534 8.534 4.693 0 8.534-3.857 8.534-8.534 0-14.865 16.009-16.009 20.958-16.009 4.898 0 20.923 1.144 20.923 16.009 0 8.926-2.748 10.991-20.002 19.473l-9.387 4.642c-17.169 8.465-29.526 14.575-29.526 34.799 0 19.899 15.274 33.297 38.007 33.297 22.459 0 37.563-13.397 37.563-33.297 0-4.711-3.806-8.534-8.534-8.534-4.676 0-8.534 3.823-8.534 8.534 0 14.643-14.336 16.231-20.497 16.231-4.898 0-20.941-1.144-20.941-16.231 0-8.943 2.748-10.991 20.002-19.49l9.404-4.642c17.135-8.448 29.509-14.575 29.509-34.782 0.017-19.763-15.291-33.075-37.99-33.075zM405.777 116.616c-4.728 0-8.534 3.823-8.534 8.534v15.667c0 4.711 3.806 8.534 8.534 8.534 4.694 0 8.534-3.823 8.534-8.534v-15.667c0-4.711-3.823-8.534-8.534-8.534zM405.777-16.709c-4.694 0-8.534 3.84-8.534 8.534v16.009c0 4.694 3.84 8.534 8.534 8.534 4.711 0 8.534-3.84 8.534-8.534v-16.009c0-4.711-3.806-8.534-8.534-8.534z" />
<glyph unicode="&#xe685;" glyph-name="Bag" d="M375.466 275.2h-238.934c-4.71 0-8.534 3.823-8.534 8.534v70.4c0 69.393 56.218 125.866 125.338 125.866 70.827 0 130.663-57.634 130.663-125.866v-70.4c0-4.71-3.84-8.534-8.534-8.534zM145.066 292.267h221.867v61.867c0 58.982-52.019 108.8-113.596 108.8-59.699 0-108.271-48.793-108.271-108.8v-61.867zM418.134-32h-324.267c-4.71 0-8.534 3.84-8.534 8.534v307.2c0 4.71 3.823 8.534 8.534 8.534h324.267c4.693 0 8.534-3.823 8.534-8.534v-307.2c0-4.693-3.84-8.534-8.534-8.534zM102.4-14.933h307.2v290.134h-307.2v-290.134zM290.134 53.334h-68.267c-4.71 0-8.534 3.84-8.534 8.534v85.334c0 4.693 3.823 8.534 8.534 8.534h68.267c4.693 0 8.534-3.84 8.534-8.534v-85.334c0-4.694-3.84-8.534-8.534-8.534zM230.4 70.4h51.2v68.267h-51.2v-68.267zM375.466 104.534h-76.8c-4.694 0-8.534 3.84-8.534 8.534s3.84 8.534 8.534 8.534h68.267v153.6h-221.867v-153.6h68.266c4.71 0 8.534-3.84 8.534-8.534s-3.823-8.534-8.534-8.534h-76.8c-4.71 0-8.534 3.84-8.534 8.534v170.667c0 4.71 3.823 8.534 8.534 8.534h238.934c4.693 0 8.534-3.823 8.534-8.534v-170.667c0-4.693-3.84-8.534-8.534-8.534z" />
<glyph unicode="&#xe68c;" glyph-name="Bar-Chart" d="M34.133 480h17.067v-512h-17.067v512zM0 2.134h512v-17.067h-512v17.067zM247.466 36.267h-34.133c-4.71 0-8.534 3.84-8.534 8.534v187.733c0 4.71 3.823 8.534 8.534 8.534h34.133c4.71 0 8.534-3.823 8.534-8.534v-187.733c0-4.694-3.823-8.534-8.534-8.534zM221.867 53.334h17.066v170.667h-17.066v-170.667zM145.066 36.267h-34.133c-4.71 0-8.534 3.84-8.534 8.534v102.4c0 4.693 3.823 8.534 8.534 8.534h34.133c4.71 0 8.534-3.84 8.534-8.534v-102.4c0-4.693-3.823-8.534-8.534-8.534zM119.466 53.334h17.066v85.334h-17.067v-85.334zM349.866 36.267h-34.134c-4.693 0-8.534 3.84-8.534 8.534v102.4c0 4.693 3.84 8.534 8.534 8.534h34.134c4.693 0 8.534-3.84 8.534-8.534v-102.4c0-4.693-3.84-8.534-8.534-8.534zM324.267 53.334h17.067v85.334h-17.067v-85.334zM452.267 36.267h-34.133c-4.693 0-8.534 3.84-8.534 8.534v204.8c0 4.71 3.84 8.534 8.534 8.534h34.134c4.693 0 8.534-3.823 8.534-8.534v-204.8c0-4.694-3.84-8.534-8.534-8.534zM426.666 53.334h17.067v187.733h-17.067v-187.733zM88.986 175.821c-2.441 0-4.83 1.041-6.519 3.055-3.038 3.567-2.594 8.96 1.007 11.998l149.316 126.225c3.397 2.85 8.414 2.662 11.554-0.495l78.404-78.575 123.75 124.808c3.294 3.345 8.738 3.362 12.066 0.051s3.379-8.721 0.051-12.066l-129.775-130.901c-1.622-1.622-3.789-2.509-6.041-2.509v0c-2.27 0-4.438 0.904-6.041 2.491l-78.916 79.104-143.309-121.139c-1.656-1.399-3.601-2.048-5.546-2.048z" />
<glyph unicode="&#xe6d0;" glyph-name="Bodybuilding" d="M143.155-1.365c-1.314 0-2.611 0.307-3.823 0.904-41.25 20.616-137.165 94.908-137.165 338.757 0 63.574 54.989 111.087 104.175 111.087 7.97 0 15.701-1.229 22.972-3.652 30.157-10.053 43.606-48.452 38.758-78.268-5.462-33.707-32.495-50.671-67.772-40.534-2.184-31.010 21.777-62.959 45.022-93.952 12.083-16.094 23.757-31.658 31.232-46.712 12.151 38.792 31.010 75.673 123.955 77.704 3.687 50.705 40.465 99.413 107.589 99.413 34.202 0 64.632-15.974 83.507-43.81 21.555-31.846 24.167-74.445 7.185-116.923-16.452-32.973-46.387-50.296-66.253-54.169-6.041-40.635-55.671-116.6-104.534-132.864-26.146-8.721-60.536-8.721-93.764-8.721-31.881 0-64.837 0-88.354-7.851-0.905-0.273-1.809-0.409-2.731-0.409zM106.326 432.298c-40.278 0-87.109-41.063-87.109-94.020 0-228.369 84.856-300.647 124.706-321.912 25.668 7.594 58.488 7.594 90.266 7.594 31.881 0 64.836 0 88.371 7.834 46.575 15.531 93.508 95.062 93.508 124.365 0 4.711 3.823 8.534 8.534 8.534 12.202 0 42.923 13.568 58.59 44.937 14.558 36.471 12.544 73.267-5.769 100.352-15.633 23.074-40.892 36.301-69.342 36.301-62.395 0-90.829-47.070-90.829-90.794 0-4.71-3.806-8.534-8.534-8.534-96.461 0-106.462-33.775-119.108-76.527-1.655-5.598-3.328-11.264-5.239-16.964-1.314-3.942-5.376-6.366-9.455-5.7-4.13 0.666-7.168 4.233-7.168 8.431 0 18.432-17.528 41.796-36.096 66.526-26.658 35.55-56.883 75.827-46.439 117.624 0.597 2.389 2.184 4.403 4.386 5.529s4.778 1.229 7.049 0.325c8.79-3.516 16.794-5.291 23.825-5.291 22.579 0 28.928 18.346 30.703 29.286 3.738 23.023-6.349 52.344-27.323 59.341-5.478 1.809-11.383 2.765-17.528 2.765z" />
<glyph unicode="&#xe6e7;" glyph-name="Box-Open" d="M242.262 4.966c-1.109 0-2.236 0.239-3.311 0.666l-187.733 78.933c-3.175 1.331-5.222 4.438-5.222 7.868v178.5h17.067v-172.834l170.666-71.748v244.411l-188.399 72.584 6.127 15.94 193.861-74.701c3.294-1.263 5.462-4.438 5.462-7.953v-263.117c0-2.85-1.434-5.529-3.806-7.117-1.399-0.973-3.055-1.433-4.71-1.433zM242.262 4.966c-1.741 0-3.464 0.529-4.915 1.57-2.27 1.587-3.618 4.199-3.618 6.963v263.117c0 3.652 2.338 6.912 5.803 8.089l223.829 75.742 5.462-16.162-218.026-73.779v-244.907l204.8 72.875v172.458h17.067v-178.5c0-3.601-2.27-6.827-5.683-8.038l-221.867-78.933c-0.905-0.325-1.877-0.495-2.85-0.495zM463.769 347.034c-1.007 0-2.014 0.188-3.038 0.546l-204.732 77.79-204.749-77.79c-4.403-1.656-9.335 0.546-11.008 4.95s0.546 9.336 4.95 11.025l207.786 78.934c1.946 0.734 4.113 0.734 6.058 0l207.769-78.934c4.403-1.689 6.622-6.605 4.95-11.025-1.314-3.397-4.557-5.495-7.987-5.495zM209.391 204.032c-1.041 0-2.065 0.205-3.072 0.563l-198.28 76.288c-2.304 0.887-4.113 2.731-4.966 5.051-0.853 2.338-0.631 4.898 0.563 7.066l37.103 66.731c2.287 4.113 7.475 5.598 11.605 3.311 4.113-2.287 5.598-7.493 3.311-11.606l-32.358-58.146 182.119-70.041 31.249 57.481c2.253 4.13 7.458 5.683 11.571 3.413 4.147-2.253 5.683-7.424 3.43-11.571l-34.833-64.051c-1.485-2.85-4.403-4.488-7.441-4.488zM291.704 199.834c-2.714 0-5.359 1.314-6.981 3.652l-47.496 68.25c-2.696 3.874-1.741 9.182 2.133 11.879 3.857 2.696 9.182 1.741 11.879-2.134l43.691-62.754 193.775 74.53-32.358 58.146c-2.287 4.113-0.802 9.319 3.311 11.606 4.13 2.287 9.318 0.802 11.606-3.311l37.12-66.731c1.195-2.168 1.433-4.728 0.563-7.066-0.853-2.321-2.663-4.182-4.966-5.052l-209.169-80.452c-1.041-0.358-2.082-0.563-3.106-0.563z" />
<glyph unicode="&#xe6ee;" glyph-name="Brain" d="M359.236 280.337c-2.202 0-4.403 0.034-6.656 0.102-4.711 0.171-8.397 4.113-8.243 8.824 0.171 4.71 4.13 8.345 8.841 8.243 26.641-0.922 74.582 3.362 97.451 41.762 2.423 4.045 7.646 5.359 11.725 2.969 4.027-2.423 5.359-7.646 2.969-11.707-19.183-32.086-57.583-50.193-106.087-50.193zM267.964 280.44c-4.027 0-7.611 2.85-8.38 6.946-0.955 5.018-8.909 49.545 1.519 69.24 4.796 9.079 18.517 8.585 46.592 6.707 12.51-0.837 33.502-2.236 37.888 0.239 1.911 2.85 0.443 15.65-0.734 25.942-1.11 9.659-2.355 20.599-1.775 31.283 0.273 4.711 4.369 8.278 8.96 8.055 4.693-0.256 8.294-4.266 8.072-8.977-0.478-9.25 0.632-19.012 1.724-28.433 1.809-16.009 3.413-29.832-3.397-38.929-6.587-8.79-23.108-8.141-51.832-6.213-10.411 0.7-25.77 1.741-31.163 0.598-4.711-12.152-2.031-40.517 0.955-56.354 0.87-4.625-2.168-9.096-6.776-9.967-0.58-0.086-1.161-0.137-1.656-0.137zM393.284 238.609c-4.199 0-7.851 3.106-8.431 7.39-0.171 1.143-3.823 28.433-2.048 46.728 0.461 4.694 4.608 8.158 9.319 7.663 4.676-0.461 8.123-4.625 7.663-9.318-1.57-16.298 1.911-42.513 1.962-42.769 0.632-4.659-2.611-8.96-7.322-9.608-0.358-0.069-0.768-0.085-1.144-0.085zM264.841 217.583c-24.969 0-83.32 69.666-93.406 89.771-12.8 25.566-19.286 66.253-19.286 120.9 0 4.711 3.823 8.534 8.534 8.534s8.534-3.823 8.534-8.534c0-51.985 5.888-90.095 17.476-113.255 12.322-24.61 66.355-80.179 78.149-80.35 4.676-0.069 8.499-3.909 8.465-8.601 0-4.677-3.772-8.465-8.465-8.465zM117.743 280.44c-4.403 0-8.158 3.397-8.499 7.868-1.331 16.93-20.207 34.509-38.469 51.507-7.936 7.407-16.162 15.036-23.126 22.801-3.157 3.516-2.85 8.892 0.648 12.049 3.516 3.158 8.909 2.85 12.049-0.648 6.451-7.185 14.387-14.575 22.050-21.692 20.651-19.217 42.018-39.099 43.861-62.669 0.359-4.694-3.141-8.806-7.834-9.182-0.239-0.034-0.461-0.034-0.683-0.034zM199.936 174.25c-4.71 0-8.534 3.823-8.534 8.534 0 35.038 17.494 66.509 29.321 76.766 3.567 3.089 8.943 2.714 12.032-0.853s2.714-8.943-0.853-12.032c-7.919-6.861-23.433-33.468-23.433-63.881 0-4.711-3.823-8.534-8.534-8.534zM380.33 0.171h-51.2c-4.693 0-8.534 3.84-8.534 8.534v100.267c0 52.293-54.699 61.866-162.406 61.866h-44.083c-43.264 0-81.715 23.706-100.369 61.815-18.756 38.298-14.029 83.115 12.288 116.975 49.255 63.335 127.112 98.219 219.256 98.219 121.446 0 220.706-64.393 259.072-168.072 9.284-25.088 6.127-51.644-8.601-72.892-14.473-20.77-36.847-31.761-64.717-31.761-19.234 0-42.189-9.608-42.189-55.466v-110.933c0.017-4.728-3.806-8.55-8.517-8.55zM337.664 17.238h34.134v102.4c0 65.467 41.421 72.534 59.238 72.534 22.358 0 39.424 8.226 50.722 24.474 11.69 16.827 14.046 37.137 6.622 57.208-35.823 96.802-128.973 156.928-243.064 156.928-86.75 0-159.829-32.546-205.773-91.631-22.306-28.672-26.299-66.594-10.428-98.987 15.752-32.222 48.35-52.241 85.026-52.241h44.083c98.184 0 179.49-5.957 179.49-78.933v-91.75h-0.051zM243.798 401.238c-4.71 0-8.534 3.823-8.534 8.534v17.066c0 4.711 3.823 8.534 8.534 8.534s8.534-3.823 8.534-8.534v-17.066c0-4.711-3.823-8.534-8.534-8.534zM38.468 205.534c-2.117 0-4.233 0.785-5.871 2.373-3.413 3.226-3.55 8.635-0.325 12.066 15.803 16.623 37.342 35.721 63.693 35.721 4.71 0 8.534-3.823 8.534-8.534s-3.823-8.534-8.534-8.534c-19.865 0-37.854-16.248-51.303-30.413-1.69-1.792-3.925-2.68-6.195-2.68zM387.226 157.73c-1.707 0-3.397 0.478-4.864 1.502-16.333 11.366-58.966 45.79-60.245 68.181-0.29 4.694 3.311 8.738 8.055 8.994 4.745 0.171 8.738-3.311 8.994-8.038 0.546-9.762 26.283-36.557 52.975-55.108 3.874-2.697 4.796-8.022 2.134-11.878-1.69-2.389-4.335-3.652-7.048-3.652z" />
<glyph unicode="&#xe72b;" glyph-name="Cardigan" d="M255.829 330.565c-2.458 0-4.796 1.058-6.417 2.901l-74.667 85.334c-3.106 3.55-2.748 8.943 0.802 12.066 3.55 3.089 8.926 2.731 12.049-0.802l68.25-77.995 68.267 77.995c3.106 3.533 8.499 3.909 12.032 0.802 3.567-3.123 3.909-8.516 0.802-12.066l-74.666-85.334c-1.656-1.826-3.993-2.901-6.451-2.901zM320.461-21.435c-1.894 0-3.857 0.649-5.427 1.962l-64.666 53.675c-3.618 3.003-4.13 8.397-1.126 11.998 3.021 3.635 8.397 4.13 12.032 1.11l64.666-53.657c3.635-3.003 4.13-8.397 1.11-12.032-1.69-1.979-4.113-3.055-6.587-3.055zM188.809-21.435c-2.492 0-4.966 1.092-6.656 3.209-2.935 3.704-2.355 9.046 1.331 11.998l67.004 53.675c3.669 2.952 9.045 2.373 11.998-1.331s2.355-9.029-1.331-11.998l-67.004-53.675c-1.57-1.263-3.447-1.877-5.342-1.877zM258.151 34.031c-4.71 0-8.534 3.84-8.534 8.534v290.134c0 4.71 3.823 8.534 8.534 8.534s8.534-3.823 8.534-8.534v-290.134c0-4.694-3.823-8.534-8.534-8.534zM478.55-25.702c-0.12 0-0.222 0-0.358 0h-63.71c-4.113 0-7.646 2.935-8.397 6.981l-37 200.534v-198.998c0-4.711-3.823-8.534-8.534-8.534h-204.8c-4.71 0-8.534 3.823-8.534 8.534v206.25l-41.66-207.923c-0.802-3.976-4.301-6.861-8.362-6.861h-63.727c-2.474 0-4.813 1.075-6.434 2.918s-2.355 4.318-2.031 6.759l50.62 374.101c0.29 2.065 1.314 3.959 2.901 5.325l89.753 77.107c1.946 1.553 42.411 33.263 87.569 33.263 45.107 0 85.538-30.584 87.194-31.88l90.163-78.524c1.57-1.365 2.577-3.226 2.867-5.291l50.262-371.781c0.461-1.075 0.734-2.236 0.734-3.464 0.017-4.676-3.84-8.517-8.517-8.517zM421.581-8.635h46.848l-48.862 361.25-87.33 76.066c-0.034 0-37.257 28.040-76.424 28.040-39.27 0-76.339-29.047-76.715-29.354l-87.040-74.769-48.879-361.216h46.984l57.19 285.423c0.853 4.301 4.864 7.253 9.216 6.81 4.369-0.427 7.697-4.096 7.697-8.499v-283.75h187.733v283.733c0 4.403 3.362 8.089 7.765 8.499 4.438 0.427 8.363-2.594 9.165-6.946l52.651-285.286zM249.617 230.298h-34.133c-4.71 0-8.534 3.823-8.534 8.534s3.823 8.534 8.534 8.534h34.133c4.71 0 8.533-3.823 8.533-8.534s-3.823-8.534-8.534-8.534zM249.617 196.164h-34.133c-4.71 0-8.534 3.84-8.534 8.534s3.823 8.534 8.534 8.534h34.133c4.71 0 8.533-3.84 8.533-8.534s-3.823-8.534-8.534-8.534zM249.617 162.031h-34.133c-4.71 0-8.534 3.84-8.534 8.534s3.823 8.534 8.534 8.534h34.133c4.71 0 8.533-3.84 8.533-8.534s-3.823-8.534-8.534-8.534zM249.617 127.897h-34.133c-4.71 0-8.534 3.84-8.534 8.534s3.823 8.534 8.534 8.534h34.133c4.71 0 8.533-3.84 8.533-8.534s-3.823-8.534-8.534-8.534z" />
<glyph unicode="&#xe73d;" glyph-name="Check-2" d="M102.69 276.787c-55.45 0-100.557 45.107-100.557 100.539s45.124 100.539 100.557 100.539 100.522-45.107 100.522-100.539-45.090-100.539-100.522-100.539zM102.69 460.783c-46.029 0-83.49-37.445-83.49-83.473s37.444-83.473 83.49-83.473c45.995 0 83.456 37.445 83.456 83.473s-37.462 83.473-83.456 83.473zM102.69 336.197c-0.495 0-1.007 0.034-1.468 0.119-2.475 0.426-4.608 1.911-5.888 4.045l-36.42 61.354c-2.389 4.045-1.058 9.284 2.986 11.69 4.045 2.423 9.284 1.075 11.707-2.986l31.335-52.787 143.736 118.272c3.653 3.003 9.011 2.474 12.015-1.161 2.986-3.635 2.491-9.011-1.161-11.998l-151.416-124.587c-1.57-1.297-3.481-1.962-5.427-1.962zM102.69-29.884c-55.45 0-100.557 45.125-100.557 100.557s45.124 100.539 100.557 100.539 100.522-45.107 100.522-100.539-45.090-100.557-100.522-100.557zM102.69 154.095c-46.029 0-83.49-37.427-83.49-83.473s37.444-83.473 83.49-83.473c45.995 0 83.456 37.427 83.456 83.473s-37.462 83.473-83.456 83.473zM102.69 29.526c-0.495 0-1.007 0.034-1.468 0.137-2.475 0.409-4.608 1.877-5.871 4.027l-36.42 61.337c-2.407 4.062-1.075 9.301 2.97 11.707 4.045 2.44 9.284 1.075 11.707-2.969l31.334-52.787 143.736 118.289c3.653 2.969 9.011 2.474 12.015-1.178 2.986-3.635 2.491-9.011-1.161-11.998l-151.416-124.587c-1.57-1.297-3.481-1.979-5.427-1.979zM409.327 276.787c-55.433 0-100.522 45.107-100.522 100.539s45.090 100.539 100.522 100.539 100.539-45.107 100.539-100.539-45.107-100.539-100.539-100.539zM409.327 460.783c-46.012 0-83.456-37.445-83.456-83.473s37.427-83.473 83.456-83.473c46.029 0 83.473 37.445 83.473 83.473s-37.427 83.473-83.473 83.473zM409.327-29.884c-55.433 0-100.522 45.125-100.522 100.557s45.090 100.539 100.522 100.539 100.539-45.107 100.539-100.539-45.107-100.557-100.539-100.557zM409.327 154.095c-46.012 0-83.456-37.427-83.456-83.473s37.427-83.473 83.456-83.473c46.029 0 83.473 37.427 83.473 83.473s-37.427 83.473-83.473 83.473z" />
<glyph unicode="&#xe792;" glyph-name="Code-Window" d="M503.466 10.666h-494.933c-4.71 0-8.534 3.84-8.534 8.534v409.6c0 4.71 3.823 8.534 8.534 8.534h494.933c4.693 0 8.534-3.823 8.534-8.534v-409.6c0-4.694-3.84-8.534-8.534-8.534zM17.067 27.733h477.866v392.534h-477.866v-392.534zM494.933 334.933h-477.866c-4.71 0-8.534 3.823-8.534 8.534s3.823 8.534 8.534 8.534h477.866c4.693 0 8.534-3.823 8.534-8.534s-3.84-8.534-8.534-8.534zM175.65 64.87c-2.833 0-5.615 1.416-7.237 3.993l-64.904 103.099c-1.861 2.969-1.724 6.776 0.359 9.608l64.904 87.995c2.799 3.789 8.141 4.608 11.929 1.792 3.789-2.799 4.608-8.141 1.792-11.929l-61.44-83.32 61.798-98.202c2.509-3.976 1.314-9.25-2.679-11.742-1.399-0.87-2.97-1.297-4.523-1.297zM345.395 64.87c-1.57 0-3.14 0.426-4.539 1.314-3.993 2.509-5.205 7.783-2.697 11.742l61.798 98.202-61.44 83.32c-2.799 3.806-1.997 9.131 1.792 11.93s9.13 1.997 11.93-1.792l64.904-87.995c2.065-2.833 2.202-6.639 0.358-9.608l-64.904-103.117c-1.604-2.577-4.369-3.993-7.202-3.993zM217.395 84.394c-1.417 0-2.833 0.358-4.165 1.075-4.113 2.304-5.581 7.475-3.277 11.623l84.446 151.108c2.304 4.113 7.475 5.581 11.639 3.294 4.096-2.304 5.563-7.493 3.26-11.606l-84.446-151.125c-1.57-2.765-4.454-4.369-7.458-4.369zM68.079 381.866c0-5.888-4.779-10.666-10.666-10.666s-10.666 4.779-10.666 10.666c0 5.888 4.779 10.667 10.666 10.667s10.666-4.779 10.666-10.667zM110.746 381.866c0-5.888-4.778-10.666-10.666-10.666s-10.666 4.779-10.666 10.666c0 5.888 4.778 10.667 10.666 10.667s10.666-4.779 10.666-10.667zM153.412 381.866c0-5.888-4.779-10.666-10.667-10.666s-10.666 4.779-10.666 10.666c0 5.888 4.779 10.667 10.666 10.667s10.666-4.779 10.666-10.667z" />
<glyph unicode="&#xe7a9;" glyph-name="Compass-4" d="M256 462.933c131.755 0 238.933-107.178 238.933-238.933 0-131.772-107.178-238.933-238.934-238.933s-238.934 107.161-238.934 238.934c0 131.754 107.178 238.934 238.934 238.934zM256 480c-141.381 0-256-114.62-256-256s114.62-256 256-256c141.363 0 256 114.62 256 256s-114.637 256-256 256v0zM149.333 66.134c-1.775 0-3.516 0.546-4.983 1.604-2.509 1.809-3.874 4.864-3.499 7.936 19.524 165.649 74.632 242.739 218.385 305.459 2.731 1.195 5.854 0.887 8.26-0.802 2.457-1.69 3.84-4.522 3.67-7.475-8.277-151.945-67.43-234.855-218.214-305.92-1.143-0.529-2.373-0.802-3.618-0.802zM353.195 359.749c-124.672-57.344-173.738-125.935-193.417-270.575 130.816 64.785 183.108 137.95 193.417 270.575zM256 194.134c-16.47 0-29.867 13.397-29.867 29.867s13.398 29.867 29.867 29.867c16.469 0 29.866-13.398 29.866-29.867s-13.397-29.867-29.867-29.867zM256 236.8c-7.065 0-12.8-5.734-12.8-12.8s5.734-12.8 12.8-12.8 12.8 5.735 12.8 12.8-5.752 12.8-12.8 12.8z" />
<glyph unicode="&#xe7af;" glyph-name="Computer" d="M471.466 104.534h-430.933c-22.358 0-40.533 18.159-40.533 40.534v294.4c0 22.358 18.176 40.534 40.533 40.534h430.933c22.375 0 40.534-18.176 40.534-40.534v-294.4c0-22.375-18.159-40.534-40.534-40.534zM40.533 462.933c-12.937 0-23.466-10.53-23.466-23.466v-294.4c0-12.937 10.53-23.466 23.466-23.466h430.933c12.937 0 23.466 10.53 23.466 23.466v294.4c0 12.937-10.53 23.466-23.466 23.466h-430.933zM494.933 411.733h-477.866c-4.71 0-8.534 3.823-8.534 8.534s3.823 8.534 8.534 8.534h477.866c4.693 0 8.534-3.823 8.534-8.534s-3.84-8.534-8.534-8.534zM494.933 155.733h-477.866c-4.71 0-8.534 3.84-8.534 8.534s3.823 8.534 8.534 8.534h477.866c4.693 0 8.534-3.84 8.534-8.534s-3.84-8.534-8.534-8.534zM368.879-32h-320c-2.953 0-5.7 1.536-7.254 4.027-1.553 2.509-1.706 5.666-0.376 8.295l42.666 85.334c1.451 2.885 4.403 4.694 7.629 4.694h256c3.909 0 7.322-2.646 8.277-6.469l21.334-85.334c0.632-2.526 0.068-5.257-1.57-7.322-1.604-2.048-4.079-3.226-6.707-3.226zM62.686-14.933h295.253l-17.067 68.267h-244.054l-34.133-68.267zM443.733-27.733c-20.736 0-34.133 15.94-34.133 40.534v21.334c0 24.627 13.397 40.534 34.134 40.534s34.134-15.906 34.134-40.534v-21.334c0-24.593-13.397-40.534-34.134-40.534zM443.733 57.6c-14.848 0-17.067-14.695-17.067-23.466v-21.334c0-8.772 2.219-23.466 17.067-23.466s17.067 14.695 17.067 23.466v21.334c0 8.772-2.219 23.466-17.067 23.466z" />
<glyph unicode="&#xe7b4;" glyph-name="Contrast" d="M256 462.933c131.755 0 238.933-107.178 238.933-238.933 0-131.772-107.178-238.933-238.934-238.933s-238.934 107.161-238.934 238.934c0 131.754 107.178 238.934 238.934 238.934zM256 480c-141.381 0-256-114.62-256-256s114.62-256 256-256c141.398 0 256 114.62 256 256s-114.637 256-256 256v0zM268.988 23.466c-4.711 0-8.534 3.84-8.534 8.534v384c0 4.711 3.823 8.534 8.534 8.534 90.829 0 200.534-89.447 200.534-200.534s-109.704-200.534-200.534-200.534zM277.521 407.159v-366.319c80.827 5.478 174.934 87.74 174.934 183.142s-94.106 177.681-174.933 183.177zM277.334 394.666h21.334v-21.334h-21.334v21.334zM277.334 352h21.334v-21.334h-21.334v21.334zM277.334 309.333h21.334v-21.333h-21.334v21.334zM277.334 266.667h21.334v-21.334h-21.334v21.334zM277.334 224h21.334v-21.334h-21.334v21.334zM277.334 181.334h21.334v-21.334h-21.334v21.334zM277.334 138.666h21.334v-21.334h-21.334v21.334zM277.334 96h21.334v-21.334h-21.334v21.334zM277.334 53.334h21.334v-21.334h-21.334v21.334zM298.666 416h21.334v-21.334h-21.334v21.334zM298.666 373.334h21.334v-21.334h-21.334v21.334zM298.666 330.667h21.334v-21.334h-21.334v21.334zM298.666 288h21.334v-21.334h-21.334v21.334zM298.666 245.333h21.334v-21.333h-21.334v21.334zM298.666 202.666h21.334v-21.334h-21.334v21.334zM298.666 160h21.334v-21.334h-21.334v21.334zM298.666 117.334h21.334v-21.334h-21.334v21.334zM298.666 74.666h21.334v-21.334h-21.334v21.334zM320 394.666h21.334v-21.334h-21.334v21.334zM320 352h21.334v-21.334h-21.334v21.334zM320 309.333h21.334v-21.333h-21.334v21.334zM320 266.667h21.334v-21.334h-21.334v21.334zM320 224h21.334v-21.334h-21.334v21.334zM320 181.334h21.334v-21.334h-21.334v21.334zM320 138.666h21.334v-21.334h-21.334v21.334zM320 96h21.334v-21.334h-21.334v21.334zM341.334 373.334h21.334v-21.334h-21.334v21.334zM341.334 330.667h21.334v-21.334h-21.334v21.334zM341.334 288h21.334v-21.334h-21.334v21.334zM341.334 245.333h21.334v-21.333h-21.334v21.334zM341.334 202.666h21.334v-21.334h-21.334v21.334zM341.334 160h21.334v-21.334h-21.334v21.334zM341.334 117.334h21.334v-21.334h-21.334v21.334zM341.334 74.666h21.334v-21.334h-21.334v21.334zM362.666 352h21.334v-21.334h-21.334v21.334zM362.666 309.333h21.334v-21.333h-21.334v21.334zM362.666 266.667h21.334v-21.334h-21.334v21.334zM362.666 224h21.334v-21.334h-21.334v21.334zM362.666 181.334h21.334v-21.334h-21.334v21.334zM362.666 138.666h21.334v-21.334h-21.334v21.334zM362.666 96h21.334v-21.334h-21.334v21.334zM384 330.667h21.334v-21.334h-21.334v21.334zM384 288h21.334v-21.334h-21.334v21.334zM384 245.333h21.334v-21.333h-21.334v21.334zM384 202.666h21.334v-21.334h-21.334v21.334zM384 160h21.334v-21.334h-21.334v21.334zM384 117.334h21.334v-21.334h-21.334v21.334zM405.334 309.333h21.334v-21.333h-21.334v21.334zM405.334 266.667h21.334v-21.334h-21.334v21.334zM405.334 224h21.334v-21.334h-21.334v21.334zM405.334 181.334h21.334v-21.334h-21.334v21.334zM405.334 138.666h21.334v-21.334h-21.334v21.334zM426.666 288h21.334v-21.334h-21.334v21.334zM426.666 245.333h21.334v-21.333h-21.334v21.334zM426.666 202.666h21.334v-21.334h-21.334v21.334zM426.666 160h21.334v-21.334h-21.334v21.334z" />
<glyph unicode="&#xe7bf;" glyph-name="CPU" d="M426.666 44.8h-341.334c-4.71 0-8.534 3.84-8.534 8.534v341.334c0 4.711 3.823 8.534 8.534 8.534h341.334c4.694 0 8.534-3.823 8.534-8.534v-341.334c0-4.694-3.84-8.534-8.534-8.534zM93.867 61.866h324.267v324.267h-324.267v-324.267zM358.4 113.067h-204.8c-4.71 0-8.534 3.84-8.534 8.534v204.8c0 4.71 3.823 8.534 8.534 8.534h204.8c4.693 0 8.534-3.823 8.534-8.534v-204.8c0-4.693-3.84-8.534-8.534-8.534zM162.133 130.134h187.733v187.733h-187.733v-187.733zM136.534 394.666c-4.71 0-8.534 3.823-8.534 8.534v51.2c0 4.711 3.823 8.534 8.534 8.534s8.534-3.823 8.534-8.534v-51.2c0-4.71-3.823-8.534-8.534-8.534zM102.4 394.666c-4.71 0-8.534 3.823-8.534 8.534v51.2c0 4.711 3.823 8.534 8.534 8.534s8.534-3.823 8.534-8.534v-51.2c0-4.71-3.823-8.534-8.534-8.534zM170.667 394.666c-4.71 0-8.534 3.823-8.534 8.534v51.2c0 4.711 3.823 8.534 8.534 8.534s8.534-3.823 8.534-8.534v-51.2c0-4.71-3.823-8.534-8.534-8.534zM204.8 394.666c-4.71 0-8.534 3.823-8.534 8.534v51.2c0 4.711 3.823 8.534 8.534 8.534s8.534-3.823 8.534-8.534v-51.2c0-4.71-3.823-8.534-8.534-8.534zM238.934 394.666c-4.71 0-8.534 3.823-8.534 8.534v51.2c0 4.711 3.823 8.534 8.534 8.534s8.534-3.823 8.534-8.534v-51.2c0-4.71-3.823-8.534-8.534-8.534zM273.067 394.666c-4.693 0-8.534 3.823-8.534 8.534v51.2c0 4.711 3.84 8.534 8.534 8.534s8.534-3.823 8.534-8.534v-51.2c0-4.71-3.84-8.534-8.534-8.534zM307.2 394.666c-4.694 0-8.534 3.823-8.534 8.534v51.2c0 4.711 3.84 8.534 8.534 8.534s8.534-3.823 8.534-8.534v-51.2c0-4.71-3.84-8.534-8.534-8.534zM341.334 394.666c-4.694 0-8.534 3.823-8.534 8.534v51.2c0 4.711 3.84 8.534 8.534 8.534s8.534-3.823 8.534-8.534v-51.2c0-4.71-3.84-8.534-8.534-8.534zM375.466 394.666c-4.693 0-8.534 3.823-8.534 8.534v51.2c0 4.711 3.84 8.534 8.534 8.534s8.534-3.823 8.534-8.534v-51.2c0-4.71-3.84-8.534-8.534-8.534zM409.6 394.666c-4.693 0-8.534 3.823-8.534 8.534v51.2c0 4.711 3.84 8.534 8.534 8.534s8.534-3.823 8.534-8.534v-51.2c0-4.71-3.84-8.534-8.534-8.534zM136.534-14.933c-4.71 0-8.534 3.84-8.534 8.534v51.2c0 4.694 3.823 8.534 8.534 8.534s8.534-3.84 8.534-8.534v-51.2c0-4.693-3.823-8.534-8.534-8.534zM102.4-14.933c-4.71 0-8.534 3.84-8.534 8.534v51.2c0 4.694 3.823 8.534 8.534 8.534s8.534-3.84 8.534-8.534v-51.2c0-4.693-3.823-8.534-8.534-8.534zM170.667-14.933c-4.71 0-8.534 3.84-8.534 8.534v51.2c0 4.694 3.823 8.534 8.534 8.534s8.534-3.84 8.534-8.534v-51.2c0-4.693-3.823-8.534-8.534-8.534zM204.8-14.933c-4.71 0-8.534 3.84-8.534 8.534v51.2c0 4.694 3.823 8.534 8.534 8.534s8.534-3.84 8.534-8.534v-51.2c0-4.693-3.823-8.534-8.534-8.534zM238.934-14.933c-4.71 0-8.534 3.84-8.534 8.534v51.2c0 4.694 3.823 8.534 8.534 8.534s8.534-3.84 8.534-8.534v-51.2c0-4.693-3.823-8.534-8.534-8.534zM273.067-14.933c-4.693 0-8.534 3.84-8.534 8.534v51.2c0 4.694 3.84 8.534 8.534 8.534s8.534-3.84 8.534-8.534v-51.2c0-4.693-3.84-8.534-8.534-8.534zM307.2-14.933c-4.694 0-8.534 3.84-8.534 8.534v51.2c0 4.694 3.84 8.534 8.534 8.534s8.534-3.84 8.534-8.534v-51.2c0-4.693-3.84-8.534-8.534-8.534zM341.334-14.933c-4.694 0-8.534 3.84-8.534 8.534v51.2c0 4.694 3.84 8.534 8.534 8.534s8.534-3.84 8.534-8.534v-51.2c0-4.693-3.84-8.534-8.534-8.534zM375.466-14.933c-4.693 0-8.534 3.84-8.534 8.534v51.2c0 4.694 3.84 8.534 8.534 8.534s8.534-3.84 8.534-8.534v-51.2c0-4.693-3.84-8.534-8.534-8.534zM409.6-14.933c-4.693 0-8.534 3.84-8.534 8.534v51.2c0 4.694 3.84 8.534 8.534 8.534s8.534-3.84 8.534-8.534v-51.2c0-4.693-3.84-8.534-8.534-8.534zM76.8 61.866h-51.2c-4.71 0-8.534 3.84-8.534 8.534s3.823 8.534 8.534 8.534h51.2c4.71 0 8.534-3.84 8.534-8.534s-3.823-8.534-8.534-8.534zM76.8 96h-51.2c-4.71 0-8.534 3.84-8.534 8.534s3.823 8.534 8.534 8.534h51.2c4.71 0 8.534-3.84 8.534-8.534s-3.823-8.534-8.534-8.534zM76.8 130.134h-51.2c-4.71 0-8.534 3.84-8.534 8.534s3.823 8.534 8.534 8.534h51.2c4.71 0 8.534-3.84 8.534-8.534s-3.823-8.534-8.534-8.534zM76.8 164.267h-51.2c-4.71 0-8.534 3.84-8.534 8.534s3.823 8.534 8.534 8.534h51.2c4.71 0 8.534-3.84 8.534-8.534s-3.823-8.534-8.534-8.534zM76.8 198.4h-51.2c-4.71 0-8.534 3.84-8.534 8.534s3.823 8.534 8.534 8.534h51.2c4.71 0 8.534-3.84 8.534-8.534s-3.823-8.534-8.534-8.534zM76.8 232.534h-51.2c-4.71 0-8.534 3.823-8.534 8.534s3.823 8.534 8.534 8.534h51.2c4.71 0 8.534-3.823 8.534-8.534s-3.823-8.534-8.534-8.534zM76.8 266.667h-51.2c-4.71 0-8.534 3.823-8.534 8.534s3.823 8.534 8.534 8.534h51.2c4.71 0 8.534-3.823 8.534-8.534s-3.823-8.534-8.534-8.534zM76.8 300.8h-51.2c-4.71 0-8.534 3.823-8.534 8.534s3.823 8.534 8.534 8.534h51.2c4.71 0 8.534-3.823 8.534-8.534s-3.823-8.534-8.534-8.534zM76.8 334.933h-51.2c-4.71 0-8.534 3.823-8.534 8.534s3.823 8.534 8.534 8.534h51.2c4.71 0 8.534-3.823 8.534-8.534s-3.823-8.534-8.534-8.534zM76.8 369.067h-51.2c-4.71 0-8.534 3.823-8.534 8.534s3.823 8.534 8.534 8.534h51.2c4.71 0 8.534-3.823 8.534-8.534s-3.823-8.534-8.534-8.534zM486.4 96h-51.2c-4.694 0-8.534 3.84-8.534 8.534s3.84 8.534 8.534 8.534h51.2c4.693 0 8.534-3.84 8.534-8.534s-3.84-8.534-8.534-8.534zM486.4 61.866h-51.2c-4.694 0-8.534 3.84-8.534 8.534s3.84 8.534 8.534 8.534h51.2c4.693 0 8.534-3.84 8.534-8.534s-3.84-8.534-8.534-8.534zM486.4 130.134h-51.2c-4.694 0-8.534 3.84-8.534 8.534s3.84 8.534 8.534 8.534h51.2c4.693 0 8.534-3.84 8.534-8.534s-3.84-8.534-8.534-8.534zM486.4 164.267h-51.2c-4.694 0-8.534 3.84-8.534 8.534s3.84 8.534 8.534 8.534h51.2c4.693 0 8.534-3.84 8.534-8.534s-3.84-8.534-8.534-8.534zM486.4 198.4h-51.2c-4.694 0-8.534 3.84-8.534 8.534s3.84 8.534 8.534 8.534h51.2c4.693 0 8.534-3.84 8.534-8.534s-3.84-8.534-8.534-8.534zM486.4 232.534h-51.2c-4.694 0-8.534 3.823-8.534 8.534s3.84 8.534 8.534 8.534h51.2c4.693 0 8.534-3.823 8.534-8.534s-3.84-8.534-8.534-8.534zM486.4 266.667h-51.2c-4.694 0-8.534 3.823-8.534 8.534s3.84 8.534 8.534 8.534h51.2c4.693 0 8.534-3.823 8.534-8.534s-3.84-8.534-8.534-8.534zM486.4 300.8h-51.2c-4.694 0-8.534 3.823-8.534 8.534s3.84 8.534 8.534 8.534h51.2c4.693 0 8.534-3.823 8.534-8.534s-3.84-8.534-8.534-8.534zM486.4 334.933h-51.2c-4.694 0-8.534 3.823-8.534 8.534s3.84 8.534 8.534 8.534h51.2c4.693 0 8.534-3.823 8.534-8.534s-3.84-8.534-8.534-8.534zM486.4 369.067h-51.2c-4.694 0-8.534 3.823-8.534 8.534s3.84 8.534 8.534 8.534h51.2c4.693 0 8.534-3.823 8.534-8.534s-3.84-8.534-8.534-8.534z" />
<glyph unicode="&#xe840;" glyph-name="Duplicate-Layer" d="M349.866 70.4h-307.2c-4.71 0-8.534 3.84-8.534 8.534v392.534c0 4.711 3.823 8.534 8.534 8.534h307.2c4.711 0 8.534-3.823 8.534-8.534v-392.534c0-4.693-3.823-8.534-8.534-8.534zM51.2 87.466h290.134v375.466h-290.134v-375.466zM469.334-32h-324.267c-4.71 0-8.534 3.84-8.534 8.534v93.866c0 4.693 3.823 8.534 8.534 8.534s8.534-3.84 8.534-8.534v-85.334h307.2v375.466h-102.4c-4.711 0-8.534 3.823-8.534 8.534s3.823 8.534 8.534 8.534h110.933c4.711 0 8.534-3.823 8.534-8.534v-392.534c0-4.694-3.823-8.533-8.534-8.533zM145.238 96c-4.677 0-8.619 3.84-8.619 8.534s3.738 8.534 8.448 8.534h0.171c4.71 0 8.534-3.84 8.534-8.534s-3.823-8.534-8.534-8.534zM145.066 130.134c-4.71 0-8.534 3.84-8.534 8.534v17.067c0 4.693 3.823 8.534 8.534 8.534s8.534-3.84 8.534-8.534v-17.067c0-4.693-3.823-8.534-8.534-8.534zM145.066 181.334c-4.71 0-8.534 3.84-8.534 8.534v17.067c0 4.694 3.823 8.534 8.534 8.534s8.534-3.84 8.534-8.534v-17.067c0-4.694-3.823-8.534-8.534-8.534zM145.066 232.534c-4.71 0-8.534 3.823-8.534 8.534v17.067c0 4.71 3.823 8.534 8.534 8.534s8.534-3.823 8.534-8.534v-17.067c0-4.71-3.823-8.534-8.534-8.534zM145.066 283.733c-4.71 0-8.534 3.823-8.534 8.534v17.066c0 4.711 3.823 8.534 8.534 8.534s8.534-3.823 8.534-8.534v-17.066c0-4.71-3.823-8.534-8.534-8.534zM145.066 334.933c-4.71 0-8.534 3.823-8.534 8.534v17.067c0 4.711 3.823 8.534 8.534 8.534s8.534-3.823 8.534-8.534v-17.067c0-4.71-3.823-8.534-8.534-8.534zM341.334 360.534h-17.067c-4.711 0-8.534 3.823-8.534 8.534s3.823 8.534 8.534 8.534h17.067c4.711 0 8.534-3.823 8.534-8.534s-3.823-8.534-8.534-8.534zM290.134 360.534h-17.067c-4.711 0-8.534 3.823-8.534 8.534s3.823 8.534 8.534 8.534h17.067c4.711 0 8.534-3.823 8.534-8.534s-3.823-8.534-8.534-8.534zM238.934 360.534h-17.066c-4.71 0-8.534 3.823-8.534 8.534s3.823 8.534 8.534 8.534h17.066c4.71 0 8.534-3.823 8.534-8.534s-3.823-8.534-8.534-8.534zM187.733 360.534h-17.066c-4.71 0-8.534 3.823-8.534 8.534s3.823 8.534 8.534 8.534h17.066c4.71 0 8.534-3.823 8.534-8.534s-3.823-8.534-8.534-8.534z" />
<glyph unicode="&#xe854;" glyph-name="Email" d="M503.466 61.866h-494.933c-4.71 0-8.534 3.84-8.534 8.534v307.2c0 4.71 3.823 8.534 8.534 8.534h494.933c4.693 0 8.534-3.823 8.534-8.534v-307.2c0-4.693-3.84-8.534-8.534-8.534zM17.067 78.933h477.866v290.134h-477.866v-290.134zM260.062 171.008c-1.843 0-3.721 0.598-5.308 1.843l-191.983 151.654c-3.703 2.918-4.318 8.295-1.416 11.981 2.936 3.704 8.294 4.335 11.998 1.417l192-151.672c3.721-2.918 4.318-8.26 1.416-11.981-1.69-2.134-4.182-3.243-6.707-3.243zM260.079 171.008c-2.526 0-5.018 1.11-6.707 3.243-2.918 3.687-2.287 9.046 1.417 11.981l192 151.672c3.704 2.918 9.046 2.287 11.981-1.417 2.918-3.687 2.287-9.063-1.416-11.981l-192-151.654c-1.553-1.246-3.413-1.843-5.274-1.843zM68.079 113.562c-2.953 0-5.837 1.536-7.407 4.267-2.355 4.096-0.938 9.301 3.157 11.673l149.333 85.76c4.096 2.355 9.302 0.938 11.656-3.175 2.355-4.062 0.939-9.301-3.157-11.673l-149.333-85.743c-1.349-0.734-2.799-1.11-4.249-1.11zM452.062 113.562c-1.433 0-2.901 0.358-4.25 1.11l-149.333 85.743c-4.079 2.373-5.495 7.56-3.175 11.673 2.355 4.096 7.543 5.512 11.656 3.175l149.333-85.76c4.096-2.373 5.495-7.56 3.175-11.673-1.57-2.731-4.438-4.267-7.407-4.267z" />
<glyph unicode="&#xe899;" glyph-name="File-Edit" d="M289.041 9.967c-2.219 0-4.403 0.87-6.041 2.491-2.406 2.423-3.158 6.024-1.911 9.165l29.491 74.701c0.409 1.092 1.075 2.099 1.911 2.901l81.75 81.767c3.209 3.209 8.875 3.209 12.066 0l45.243-45.261c3.328-3.328 3.328-8.738 0-12.066l-81.733-81.75c-0.837-0.837-1.809-1.467-2.901-1.877l-74.735-29.491c-1.024-0.375-2.099-0.58-3.14-0.58zM325.786 88.44l-21.606-54.767 54.784 21.606 74.462 74.462-33.195 33.178-74.445-74.479zM444.007 116.173l-12.066 12.066 21.709 21.692c7.629 7.594 4.454 25.173-1.775 31.42-6.247 6.212-23.791 9.37-31.42 1.758l-21.709-21.692-12.066 12.066 21.709 21.692c15.582 15.565 43.981 9.745 55.535-1.741 11.554-11.606 17.391-40.005 1.792-55.586l-21.709-21.675zM362.53 53.299c-2.185 0-4.369 0.837-6.041 2.491l-30.191 30.174c-3.345 3.328-3.345 8.738 0 12.066 3.328 3.328 8.738 3.328 12.066 0l30.191-30.174c3.311-3.328 3.311-8.755 0-12.066-1.656-1.656-3.84-2.491-6.024-2.491zM407.808 98.526c-2.185 0-4.369 0.837-6.041 2.491l-30.174 30.208c-3.328 3.328-3.328 8.738 0 12.066 3.311 3.311 8.738 3.328 12.066 0l30.174-30.208c3.328-3.328 3.328-8.738 0-12.066-1.673-1.639-3.857-2.491-6.024-2.491zM258.68-32h-213.333c-4.71 0-8.534 3.84-8.534 8.534v375.842c0 2.185 0.837 4.284 2.338 5.871l112.879 119.091c1.605 1.707 3.857 2.663 6.195 2.663h262.587c4.711 0 8.534-3.823 8.534-8.534v-230.4c0-4.71-3.823-8.534-8.534-8.534s-8.534 3.823-8.534 8.534v221.867h-250.385l-108.015-113.954v-363.913h204.8c4.711 0 8.534-3.84 8.534-8.534s-3.823-8.533-8.534-8.533zM164.813 343.466h-110.933c-4.71 0-8.534 3.823-8.534 8.534s3.823 8.534 8.534 8.534h102.4v102.4c0 4.711 3.823 8.534 8.534 8.534s8.534-3.823 8.534-8.534v-110.933c0-4.711-3.823-8.534-8.534-8.534z" />
<glyph unicode="&#xe8a0;" glyph-name="File-HorizontalText" d="M503.466 36.267h-494.933c-4.71 0-8.534 3.84-8.534 8.534v239.309c0 2.184 0.837 4.284 2.338 5.871l112.879 119.091c1.605 1.707 3.857 2.662 6.195 2.662h382.054c4.693 0 8.534-3.823 8.534-8.534v-358.4c0-4.694-3.84-8.534-8.534-8.534zM17.067 53.334h477.866v341.334h-369.851l-108.015-113.954v-227.379zM128 275.2h-110.933c-4.71 0-8.534 3.823-8.534 8.534s3.823 8.534 8.534 8.534h102.4v102.4c0 4.71 3.823 8.534 8.533 8.534s8.534-3.823 8.534-8.534v-110.934c0-4.71-3.823-8.534-8.534-8.534zM426.666 326.4h-238.934c-4.71 0-8.534 3.823-8.534 8.534s3.823 8.534 8.534 8.534h238.934c4.694 0 8.534-3.823 8.534-8.534s-3.84-8.534-8.534-8.534zM426.666 258.134h-238.934c-4.71 0-8.534 3.823-8.534 8.534s3.823 8.534 8.534 8.534h238.934c4.694 0 8.534-3.823 8.534-8.534s-3.84-8.534-8.534-8.534zM426.666 189.866h-341.334c-4.71 0-8.534 3.84-8.534 8.534s3.823 8.534 8.534 8.534h341.334c4.694 0 8.534-3.84 8.534-8.534s-3.84-8.534-8.534-8.534zM426.666 121.6h-341.334c-4.71 0-8.534 3.84-8.534 8.534s3.823 8.534 8.534 8.534h341.334c4.694 0 8.534-3.84 8.534-8.534s-3.84-8.534-8.534-8.534z" />
<glyph unicode="&#xe8c4;" glyph-name="Finger-Print" d="M396.834 89.6c-2.014 0-4.045 0.7-5.666 2.151-3.533 3.123-3.84 8.517-0.717 12.049 52.668 59.306 78.216 133.376 70.058 203.281-6.844 58.76-36.539 109.432-83.558 142.695-3.857 2.731-4.762 8.038-2.048 11.896s8.055 4.761 11.896 2.048c51.046-36.096 83.251-91.017 90.675-154.658 8.721-74.735-18.363-153.685-74.257-216.593-1.707-1.894-4.027-2.867-6.383-2.867zM203.606-17.272c-2.594 0-5.206 1.178-6.861 3.464-2.799 3.789-1.997 9.13 1.775 11.93 60.211 44.425 95.778 77.363 152.218 140.97 42.599 47.957 63.368 106.94 57.002 161.826-5.086 43.639-26.897 81.066-61.371 105.369-71.493 50.279-170.615 30.021-241.032-49.272-3.141-3.55-8.534-3.84-12.049-0.717-3.533 3.158-3.84 8.517-0.717 12.049 76.39 86.033 184.815 107.367 263.629 51.917 38.519-27.119 62.839-68.813 68.505-117.334 6.929-59.733-15.377-123.563-61.184-175.155-57.361-64.649-93.525-98.134-154.863-143.36-1.519-1.144-3.294-1.69-5.052-1.69zM223.846 66.151c-2.44 0-4.813 1.024-6.519 3.003-3.055 3.584-2.594 8.977 0.99 12.032 29.389 25.002 55.382 51.115 92.706 93.184 32.563 36.625 48.606 80.555 43.947 120.474-0.546 4.676 2.816 8.909 7.475 9.455 4.693 0.581 8.926-2.816 9.472-7.492 5.205-44.749-12.373-93.491-48.145-133.735-37.888-42.735-64.358-69.342-94.413-94.89-1.587-1.349-3.584-2.031-5.512-2.031zM41.489 226.458c-2.56 0-5.12 1.161-6.776 3.362-2.85 3.738-2.133 9.096 1.605 11.947 34.85 26.59 58.181 48.776 96 91.306 58.778 66.185 136.465 83.746 193.297 43.725 3.857-2.714 4.779-8.038 2.065-11.879-2.714-3.857-8.038-4.778-11.896-2.065-49.391 34.782-117.999 18.261-170.718-41.114-38.673-43.469-62.584-66.185-98.424-93.525-1.519-1.195-3.345-1.758-5.154-1.758zM118.698 52.394c-2.662 0-5.308 1.263-6.946 3.567-2.748 3.857-1.843 9.165 1.98 11.93 68.847 49.135 101.239 78.302 157.56 141.756 22.204 24.986 33.741 54.545 30.908 79.070-1.553 13.346-7.458 23.962-17.015 30.703-30.225 21.316-72.192-1.195-100.403-32.922-49.425-55.637-77.875-81.186-138.359-124.365-3.857-2.765-9.165-1.843-11.913 1.997-2.713 3.84-1.826 9.165 1.997 11.878 59.273 42.274 87.109 67.311 135.51 121.788 39.919 44.953 89.344 59.238 122.982 35.55 13.671-9.608 22.016-24.389 24.149-42.701 3.379-29.269-9.711-63.795-35.089-92.365-57.327-64.598-90.334-94.242-160.41-144.333-1.502-1.007-3.225-1.553-4.95-1.553zM78.353 98.765c-2.68 0-5.325 1.246-6.981 3.618-2.731 3.857-1.792 9.182 2.065 11.878 76.442 53.829 111.65 86.392 171.366 158.259 3.021 3.635 8.397 4.13 12.015 1.109 3.618-3.003 4.13-8.397 1.092-12.015-60.843-73.284-96.768-106.445-174.643-161.331-1.502-1.024-3.243-1.519-4.915-1.519z" />
<glyph unicode="&#xe8c6;" glyph-name="Fingerprint-2" d="M474.812 79.462c-0.546 0-1.075 0.034-1.622 0.137-4.625 0.904-7.663 5.359-6.759 10.001 12.066 62.396 10.206 114.074 9.079 144.93l-0.256 6.878c0 121.105-100.164 219.392-223.3 219.392-68.062 0-134.246-32.904-177.032-88.030-2.901-3.755-8.243-4.421-11.981-1.536s-4.386 8.243-1.502 11.998c45.995 59.272 117.214 94.635 190.515 94.635 132.557 0 240.367-105.95 240.367-236.168l0.239-6.263c1.161-31.898 3.106-84.753-9.353-149.078-0.802-4.062-4.369-6.895-8.397-6.895zM27.102 195.67c-4.71 0-8.534 3.84-8.534 8.534v36.079c0 38.195 9.489 78.421 26.026 110.37 2.167 4.182 7.322 5.786 11.503 3.635 4.181-2.168 5.819-7.322 3.653-11.503-15.121-29.167-24.133-67.498-24.133-102.519v-36.079c0.017-4.693-3.806-8.517-8.517-8.517zM29.201 152.183c-4.71 0-8.534 3.823-8.534 8.534s3.823 8.534 8.534 8.534c13.619 0 23.501 10.82 23.501 25.736v45.312c0 104.022 90.197 191.914 196.915 191.914 26.982 0 54.681-5.325 77.944-14.967 4.352-1.792 6.417-6.793 4.625-11.144s-6.793-6.4-11.144-4.625c-21.265 8.823-46.609 13.671-71.424 13.671-97.468 0-179.849-80.060-179.849-174.848v-45.312c0-24.423-17.442-42.803-40.568-42.803zM409.361 15.121c-1.007 0-1.997 0.171-2.969 0.512-4.421 1.656-6.673 6.57-5.034 10.991 32.7 88.115 29.798 167.8 28.399 206.097l-0.12 3.089c-0.103 2.219-0.171 4.198-0.171 5.888 0 53.094-24.525 102.587-67.209 135.817-3.738 2.885-4.403 8.243-1.502 11.963 2.901 3.738 8.243 4.386 11.964 1.502 46.899-36.471 73.83-90.88 73.83-149.282 0-1.485 0.068-3.226 0.137-5.189l0.103-2.645c1.467-39.902 4.471-121.873-29.44-213.162-1.246-3.464-4.505-5.581-7.987-5.581zM347.341-11.673c-1.297 0-2.594 0.29-3.874 0.921-4.199 2.134-5.888 7.271-3.755 11.469 49.101 96.683 45.79 187.119 44.185 230.571l-0.086 2.27c-0.12 3.123-0.222 5.854-0.222 8.141 0 70.451-59.067 127.761-131.669 127.761-20.088 0-39.493-4.574-57.703-13.585-4.232-2.099-9.352-0.359-11.435 3.857-2.099 4.233-0.358 9.352 3.857 11.435 20.292 10.052 42.888 15.36 65.297 15.36 82.022 0 148.736-64.955 148.736-144.827 0-2.099 0.103-4.625 0.222-7.493l0.068-2.202c1.536-41.472 5.103-138.359-45.995-239.001-1.536-2.969-4.539-4.676-7.629-4.676zM111.719 231.749c-4.71 0-8.534 3.823-8.534 8.534 0 40.687 18.142 80.128 49.817 108.203 3.516 3.14 8.909 2.816 12.049-0.717 3.123-3.516 2.816-8.909-0.717-12.049-28.006-24.849-44.066-59.631-44.066-95.437-0.017-4.71-3.84-8.534-8.55-8.534zM31.539 104.601c-3.703 0-7.117 2.44-8.192 6.127-1.331 4.539 1.28 9.267 5.803 10.599l20.070 5.837c41.352 12.066 53.965 27.87 53.965 67.823 0 4.711 3.823 8.534 8.534 8.534s8.534-3.823 8.534-8.534c0-47.309-17.954-70.11-66.253-84.19l-20.070-5.871c-0.802-0.222-1.587-0.325-2.389-0.325zM283.409-29.849c-1.656 0-3.277 0.478-4.745 1.45-3.909 2.628-4.966 7.936-2.338 11.827 42.513 63.232 62.942 135.356 62.43 220.433-0.034 4.711 3.772 8.567 8.482 8.601 0.017 0 0.034 0 0.051 0 4.694 0 8.499-3.806 8.534-8.499 0.495-87.399-21.47-164.779-65.331-230.042-1.622-2.457-4.318-3.772-7.082-3.772zM59.017 66.594c-3.703 0-7.117 2.44-8.192 6.144-1.331 4.522 1.28 9.25 5.803 10.582 58.573 17.067 81.408 48.367 81.408 111.633v45.312c0 53.589 50.654 100.591 108.407 100.591 56.764 0 102.912-44.476 102.912-99.174 0-4.71-3.823-8.534-8.534-8.534-4.693 0-8.534 3.823-8.534 8.534 0 45.261-38.502 82.107-85.846 82.107-47.803 0-91.341-39.817-91.341-83.524v-45.312c0-70.605-28.023-108.885-93.696-128.017-0.802-0.205-1.605-0.341-2.389-0.341zM227.294-28.86c-1.894 0-3.823 0.632-5.393 1.928-3.653 2.969-4.198 8.363-1.212 12.015 28.672 35.123 49.050 75.042 60.57 118.767 1.195 4.591 5.871 7.288 10.428 6.075 4.557-1.195 7.271-5.888 6.058-10.428-12.151-46.080-33.639-88.201-63.846-125.218-1.673-2.082-4.13-3.14-6.605-3.14zM99.55 28.16c-3.481 0-6.758 2.134-8.022 5.598-1.621 4.438 0.665 9.336 5.103 10.957 90.658 33.024 109.688 99.942 109.688 150.289v45.295c0 30.788 22.562 54.904 51.371 54.904 30.396 0 54.221-23.483 54.221-53.487 0-3.959 0.375-9.011 0.819-15.018 0.853-11.537 1.997-27.341 1.297-45.431-0.205-4.693-4.233-8.567-8.875-8.192-4.693 0.205-8.363 4.164-8.175 8.875 0.683 17.152-0.375 31.761-1.263 43.52-0.478 6.486-0.87 11.964-0.87 16.264 0 20.412-16.315 36.421-37.154 36.421-19.559 0-34.304-16.264-34.304-37.837v-45.295c0-78.865-42.94-137.933-120.918-166.332-0.973-0.392-1.963-0.529-2.918-0.529zM225.195 68.318c-1.331 0-2.662 0.325-3.925 0.955-4.181 2.168-5.82 7.339-3.635 11.503 15.565 30.003 22.801 63.437 22.801 105.13v35.362c0 4.71 3.823 8.534 8.534 8.534s8.534-3.823 8.534-8.534v-35.328c0-43.964-8.089-80.93-24.73-112.999-1.519-2.935-4.488-4.625-7.577-4.625zM153.088-8.295c-2.901 0-5.734 1.485-7.339 4.164-2.423 4.027-1.093 9.284 2.952 11.707 18.449 11.025 34.219 24.030 46.882 38.673 3.089 3.55 8.465 3.959 12.032 0.87s3.942-8.482 0.87-12.049c-13.858-16.009-31.027-30.191-51.029-42.154-1.365-0.819-2.867-1.212-4.369-1.212z" />
<glyph unicode="&#xe8c7;" glyph-name="Fingerprint" d="M92.023 326.878c-1.109 0-2.236 0.222-3.311 0.683-4.352 1.826-6.383 6.844-4.54 11.178 47.257 111.803 171.35 160.905 250.76 130.048 56.61-21.999 91.631-63.675 104.055-123.921 0.955-4.608-2.031-9.113-6.656-10.070-4.591-0.955-9.096 2.031-10.070 6.639-11.332 54.938-41.899 91.392-93.508 111.445-70.622 27.392-185.993-19.405-228.864-120.798-1.4-3.26-4.557-5.206-7.868-5.206zM407.962 96c-0.632 0-1.28 0.068-1.928 0.222-4.591 1.058-7.458 5.632-6.4 10.257 5.666 24.61 10.035 50.739 14.661 78.37 1.894 11.332 3.806 22.699 5.82 34.048 4.438 25.088 6.759 48.606 6.878 69.888 0.034 4.711 3.43 8.209 8.601 8.482 4.694-0.034 8.499-3.874 8.465-8.567-0.137-22.255-2.526-46.745-7.134-72.772-1.997-11.281-3.909-22.613-5.803-33.877-4.471-26.675-9.063-54.272-14.865-79.394-0.887-3.993-4.386-6.656-8.294-6.656zM306.313-29.832c-27.631 0-61.218 11.008-95.044 31.727-80.128 49.152-133.683 132.727-143.292 223.607-0.478 4.694 2.901 8.892 7.594 9.387 4.694 0.461 8.891-2.901 9.386-7.577 9.046-85.657 59.597-164.455 135.237-210.841 41.54-25.464 83.149-35.243 108.561-25.531 4.369 1.707 9.318-0.512 11.025-4.933 1.707-4.403-0.512-9.336-4.933-11.025-8.414-3.226-18.039-4.813-28.536-4.813zM160.205 89.019c-2.509 0-5.018 1.11-6.707 3.243-30.464 38.69-48.828 84.531-53.129 132.591-5.751 63.983 17.903 110.029 38.758 137.404 2.85 3.755 8.192 4.488 11.946 1.622 3.755-2.85 4.488-8.192 1.621-11.947-19.012-24.986-40.584-67.038-35.328-125.56 3.993-44.749 21.129-87.466 49.528-123.529 2.918-3.704 2.287-9.063-1.417-11.998-1.553-1.246-3.397-1.826-5.274-1.826zM288.87 11.673c-28.143 0-62.379 13.892-94.020 38.963-3.686 2.918-4.318 8.26-1.382 11.981 2.918 3.687 8.278 4.318 11.981 1.382 34.85-27.614 73.626-40.653 98.765-33.229 55.637 16.469 71.237 98.594 83.49 188.57 9.933 73.011 3.481 165.854-83.644 193.673-26.966 8.618-58.948 4.966-89.959-10.274-4.25-2.082-9.352-0.325-11.417 3.909s-0.341 9.336 3.891 11.418c35.004 17.186 71.475 21.162 102.707 11.195 76.766-24.507 110.626-99.874 95.351-212.224-13.022-95.761-30.123-183.313-95.556-202.649-6.281-1.826-13.039-2.714-20.207-2.714zM354.56 151.040c-0.632 0-1.263 0.068-1.894 0.205-4.591 1.058-7.475 5.632-6.434 10.223 3.823 16.81 6.827 36.488 9.011 58.385 6.724 67.43-9.95 119.023-45.721 141.551-3.993 2.509-5.205 7.783-2.697 11.759 2.509 3.993 7.8 5.188 11.759 2.679 42.070-26.487 61.115-82.483 53.641-157.679-2.236-22.613-5.376-42.957-9.336-60.467-0.887-3.959-4.421-6.656-8.329-6.656zM274.808 53.623c-27.409 0-59.46 16.35-86.733 44.971-16.776 17.579-30.686 39.031-40.226 61.969-8.431 20.275-13.5 41.677-15.087 63.59-3.618 50.193 14.302 97.912 49.169 130.867 31.215 29.509 71.987 42.394 106.359 33.673 4.591-1.161 7.356-5.82 6.144-10.377-1.144-4.557-5.803-7.322-10.342-6.161-28.809 7.322-63.437-3.976-90.454-29.509-31.13-29.44-47.121-72.175-43.844-117.248 1.434-20.070 6.076-39.68 13.807-58.282 8.755-20.992 21.487-40.635 36.83-56.73 27.323-28.672 60.296-43.844 83.985-38.707 16.145 3.55 29.303 13.875 40.175 31.608 2.491 3.993 7.731 5.274 11.742 2.799 4.010-2.491 5.257-7.731 2.799-11.742-13.243-21.555-30.447-34.765-51.080-39.322-4.25-0.955-8.687-1.399-13.243-1.399zM331.366 211.32c-0.188 0-0.358 0-0.563 0.017-4.693 0.341-8.26 4.386-7.97 9.079 3.209 47.599-9.301 101.495-53.829 110.029-8.618 1.638-17.681 0.887-26.914-2.27-4.471-1.519-9.302 0.854-10.838 5.308-1.519 4.471 0.853 9.319 5.325 10.838 12.066 4.13 24.047 5.086 35.618 2.885 46.438-8.892 72.329-57.925 67.67-127.931-0.29-4.505-4.027-7.953-8.499-7.953zM264.704 96c-15.291 0-31.898 6.759-47.531 19.558-30.293 24.764-49.75 65.075-52.019 107.895-1.314 24.559 3.72 48.486 14.541 69.154 2.167 4.182 7.322 5.786 11.52 3.601 4.181-2.185 5.786-7.339 3.601-11.52-9.387-17.954-13.756-38.827-12.63-60.348 2.389-44.817 25.225-78.797 45.79-95.591 14.166-11.571 29.286-17.169 41.421-15.36 24.729 3.67 37.803 30.856 44.407 52.992 1.349 4.539 6.093 7.099 10.615 5.752s7.099-6.075 5.752-10.615c-11.503-38.605-31.642-61.082-58.266-65.041-2.373-0.307-4.779-0.478-7.202-0.478zM257.928 138.565c-10.001 0-20.548 4.522-29.969 12.937-17.834 15.906-29.491 43.23-30.395 71.322-0.922 27.494 8.909 53.316 26.282 69.069 11.213 10.172 24.423 14.831 37.12 13.175 29.56-3.874 48.264-37.888 46.524-84.668-0.171-4.711-4.027-8.431-8.841-8.209-4.711 0.171-8.397 4.13-8.209 8.841 1.365 36.898-11.69 64.495-31.675 67.106-7.646 1.024-16.008-2.15-23.45-8.892-13.482-12.237-21.418-33.638-20.685-55.859 0.922-28.177 13.363-49.033 24.696-59.136 6.758-6.024 13.773-9.011 19.866-8.55 4.711 0.426 8.841-3.14 9.199-7.817s-3.106-8.824-7.8-9.199c-0.904-0.086-1.758-0.12-2.663-0.12z" />
<glyph unicode="&#xe8e8;" glyph-name="Fluorescent" d="M312.627 28.621h-102.4c-4.694 0-8.534 3.823-8.534 8.534v102.4c0 4.711 3.84 8.534 8.534 8.534h102.4c4.711 0 8.534-3.823 8.534-8.534v-102.4c0-4.728-3.806-8.534-8.534-8.534zM218.761 45.688h85.333v85.334h-85.334v-85.334zM261.427-24.371c-33.485 0-59.733 27.801-59.733 63.3h17.066c0-25.942 18.756-46.233 42.667-46.233 23.928 0 42.666 20.293 42.666 46.233h17.067c0-35.498-26.248-63.3-59.733-63.3zM235.639 131.021c-2.185 0-4.386 0.837-6.042 2.509l-65.946 66.338c-1.877 1.894-2.765 4.574-2.423 7.202 0.358 2.628 1.946 4.966 4.284 6.264l172.647 96.597c4.13 2.304 9.301 0.819 11.623-3.277 2.321-4.113 0.853-9.319-3.26-11.623l-162.833-91.102 58.010-58.368c3.328-3.328 3.311-8.772-0.034-12.066-1.673-1.639-3.84-2.474-6.024-2.474zM169.677 246.665c-2.987 0-5.888 1.57-7.458 4.369-2.321 4.113-0.837 9.302 3.26 11.606l172.647 96.615c4.13 2.304 9.301 0.837 11.623-3.277s0.853-9.318-3.26-11.622l-172.647-96.598c-1.331-0.751-2.765-1.093-4.165-1.093zM169.677 296.005c-2.987 0-5.888 1.57-7.458 4.369-2.304 4.113-0.819 9.301 3.277 11.606l172.647 96.58c4.13 2.321 9.301 0.837 11.623-3.277s0.853-9.302-3.26-11.606l-172.647-96.581c-1.349-0.751-2.782-1.092-4.181-1.092zM169.677 345.327c-2.987 0-5.888 1.57-7.458 4.369-2.304 4.113-0.819 9.301 3.277 11.606l172.647 96.58c4.13 2.304 9.301 0.837 11.623-3.277s0.853-9.302-3.26-11.606l-172.647-96.581c-1.349-0.734-2.782-1.092-4.181-1.092zM176.094 395.554c-4.694 0-8.534 3.823-8.534 8.534v21.982c0 26.488 27.563 46.285 52.224 46.285h50.176c4.711 0 8.534-3.823 8.534-8.534s-3.823-8.534-8.534-8.534h-50.176c-15.94 0-35.157-13.039-35.157-29.218v-21.982c0-4.71-3.806-8.534-8.534-8.534zM304.555 182.221h-68.71c-4.694 0-8.534 3.823-8.534 8.534s3.84 8.534 8.534 8.534h68.71c12.271 0 16.623 23.33 16.623 43.315v24.952c0 4.71 3.84 8.534 8.534 8.534 4.711 0 8.534-3.823 8.534-8.534v-24.952c-0.017-38.366-12.288-60.382-33.69-60.382z" />
<glyph unicode="&#xe915;" glyph-name="Font-Window" d="M503.466 10.666h-494.933c-4.71 0-8.534 3.84-8.534 8.534v409.6c0 4.71 3.823 8.534 8.534 8.534h494.933c4.693 0 8.534-3.823 8.534-8.534v-409.6c0-4.694-3.84-8.534-8.534-8.534zM17.067 27.733h477.866v392.534h-477.866v-392.534zM494.933 334.933h-477.866c-4.71 0-8.534 3.823-8.534 8.534s3.823 8.534 8.534 8.534h477.866c4.693 0 8.534-3.823 8.534-8.534s-3.84-8.534-8.534-8.534zM368.197 64c-10.325 0-20.429 1.707-29.031 5.495-15.036 6.69-23.433 19.166-23.62 35.175-0.154 12.254 4.25 22.579 13.090 30.686 26.607 24.457 86.135 18.875 88.644 18.637l-1.69-16.981c-15.053 1.45-58.010 1.775-75.435-14.233-5.171-4.728-7.629-10.599-7.526-17.886 0.12-9.336 4.539-15.803 13.5-19.781 19.763-8.807 54.067-1.928 67.226 9.625l11.264-12.834c-11.947-10.462-34.68-17.903-56.423-17.903zM91.853 54.118c-0.99 0-2.014 0.188-2.987 0.546-4.421 1.673-6.656 6.57-5.001 11.008l80.231 214.186c1.655 4.403 6.553 6.656 10.991 4.984 4.421-1.656 6.656-6.571 5-10.991l-80.231-214.186c-1.297-3.43-4.557-5.546-8.005-5.546zM258.373 54.118c-3.464 0-6.707 2.116-7.987 5.546l-80.248 214.187c-1.655 4.42 0.581 9.335 5 10.991 4.421 1.639 9.335-0.597 10.991-4.983l80.248-214.186c1.673-4.438-0.563-9.336-4.983-11.008-1.024-0.358-2.031-0.546-3.021-0.546zM136.534 181.334h85.334v-17.067h-85.334v17.067zM418.134 70.4c-4.693 0-8.534 3.84-8.534 8.534v98.56c-2.56 5.735-6.639 9.541-12.288 11.589-19.661 7.134-54.033-7.8-65.621-14.166-4.079-2.27-9.301-0.768-11.589 3.345-2.27 4.13-0.768 9.336 3.345 11.606 1.962 1.092 48.606 26.505 79.65 15.274 10.854-3.909 18.586-11.623 22.971-22.835 0.392-0.99 0.598-2.048 0.598-3.106v-100.267c0-4.694-3.84-8.534-8.534-8.534zM68.079 381.866c0-5.888-4.779-10.666-10.666-10.666s-10.666 4.779-10.666 10.666c0 5.888 4.779 10.667 10.666 10.667s10.666-4.779 10.666-10.667zM110.746 381.866c0-5.888-4.778-10.666-10.666-10.666s-10.666 4.779-10.666 10.666c0 5.888 4.778 10.667 10.666 10.667s10.666-4.779 10.666-10.667zM153.412 381.866c0-5.888-4.779-10.666-10.667-10.666s-10.666 4.779-10.666 10.666c0 5.888 4.779 10.667 10.666 10.667s10.666-4.779 10.666-10.667z" />
<glyph unicode="&#xe923;" glyph-name="Fountain-Pen" d="M254.054-5.735c-0.017 0-0.051 0-0.085 0-3.004 0.034-5.768 1.656-7.287 4.233l-85.521 146.688c-1.126 1.911-1.451 4.233-0.905 6.4l26.675 105.335c1.161 4.574 5.803 7.339 10.343 6.161 4.591-1.144 7.339-5.786 6.178-10.36l-25.822-101.957 76.561-131.277 80.077 131.379-25.77 101.854c-1.144 4.574 1.604 9.216 6.161 10.359 4.539 1.161 9.199-1.604 10.36-6.161l26.675-105.336c0.563-2.236 0.205-4.591-1.007-6.536l-89.395-146.688c-1.502-2.526-4.267-4.096-7.237-4.096zM254.054 3.601c-4.71 0-8.534 3.84-8.534 8.534v170.667c0 4.711 3.823 8.534 8.534 8.534s8.533-3.823 8.533-8.534v-170.667c0-4.693-3.823-8.534-8.534-8.534zM254.054 184.935c-16.47 0-29.867 13.397-29.867 29.866s13.398 29.867 29.867 29.867c16.47 0 29.867-13.398 29.867-29.867 0.017-16.469-13.38-29.866-29.867-29.866zM254.054 227.601c-7.066 0-12.8-5.735-12.8-12.8s5.734-12.8 12.8-12.8 12.8 5.735 12.8 12.8c0.017 7.065-5.735 12.8-12.8 12.8zM343.466 251.067h-174.934c-4.318 0-7.953 3.226-8.482 7.51l-21.999 183.466c-0.563 4.676 2.782 8.926 7.458 9.506 4.762 0.581 8.926-2.782 9.489-7.458l21.095-175.957h159.778l21.128 178.073c0.529 4.676 4.745 7.987 9.472 7.475 4.676-0.563 8.038-4.796 7.475-9.472l-21.999-185.6c-0.512-4.318-4.147-7.543-8.482-7.543z" />
<glyph unicode="&#xea14;" glyph-name="Laptop-Phone" d="M358.4 78.933h-325.529c-19.968 0-32.87 17.579-32.87 44.8v14.933c0 4.694 3.823 8.534 8.534 8.534h349.866c4.693 0 8.534-3.84 8.534-8.534s-3.84-8.534-8.534-8.534h-341.334v-6.4c0-2.85 0.444-27.733 15.803-27.733h325.529c4.694 0 8.534-3.84 8.534-8.534s-3.84-8.534-8.534-8.534zM358.4 130.134h-315.733c-4.71 0-8.534 3.84-8.534 8.534v262.4c0 20.975 17.784 53.334 41.404 53.334h358.4c23.825 0 43.93-32.751 43.93-53.334v-134.4c0-4.711-3.84-8.534-8.534-8.534s-8.534 3.823-8.534 8.534v134.4c0 13.79-15.002 36.267-26.863 36.267h-358.4c-11.281 0-24.337-21.947-24.337-36.267v-253.866h307.2c4.693 0 8.534-3.84 8.534-8.534s-3.84-8.534-8.534-8.534zM358.4 164.267h-264.534c-4.71 0-8.534 3.84-8.534 8.534v221.867c0 4.71 3.823 8.534 8.534 8.534h324.267c4.694 0 8.534-3.823 8.534-8.534v-128c0-4.711-3.84-8.534-8.534-8.534s-8.534 3.823-8.534 8.534v119.466h-307.2v-204.8h256c4.693 0 8.534-3.84 8.534-8.534s-3.84-8.534-8.534-8.534zM486.793-6.4h-103.219c-13.875 0-25.207 11.298-25.207 25.207v222.669c0 13.875 11.315 25.191 25.207 25.191h103.219c13.875 0 25.207-11.298 25.207-25.19v-222.686c0-13.892-11.315-25.19-25.207-25.19zM383.608 249.6c-4.488 0-8.141-3.635-8.141-8.124v-222.686c0-4.471 3.652-8.123 8.141-8.123h103.219c4.488 0 8.141 3.635 8.141 8.123v222.686c0 4.488-3.652 8.124-8.141 8.124h-103.219zM494.933 215.466h-119.466c-4.693 0-8.534 3.823-8.534 8.534s3.84 8.534 8.534 8.534h119.466c4.693 0 8.534-3.823 8.534-8.534s-3.84-8.534-8.534-8.534zM494.933 44.8h-119.466c-4.693 0-8.534 3.84-8.534 8.534s3.84 8.534 8.534 8.534h119.466c4.693 0 8.534-3.84 8.534-8.534s-3.84-8.534-8.534-8.534z" />
<glyph unicode="&#xea60;" glyph-name="Loop" d="M410.675 130.134h-309.334c-51.763 0-93.867 42.103-93.867 93.867s42.103 93.867 93.867 93.867h309.334c51.763 0 93.867-42.103 93.867-93.867s-42.103-93.867-93.866-93.867zM101.342 300.8c-42.343 0-76.8-34.458-76.8-76.8s34.458-76.8 76.8-76.8h309.334c42.325 0 76.8 34.457 76.8 76.8s-34.474 76.8-76.8 76.8h-309.334zM213.333 75.896c-2.56 0-5.086 1.144-6.758 3.328l-41.779 54.221c-2.373 3.089-2.373 7.356 0 10.411l41.779 54.204c2.885 3.755 8.243 4.438 11.964 1.57 3.738-2.867 4.438-8.226 1.553-11.964l-37.769-49.032 37.769-48.998c2.885-3.755 2.185-9.096-1.553-11.964-1.536-1.195-3.397-1.775-5.206-1.775zM320.904 246.579c-1.826 0-3.652 0.581-5.205 1.775-3.755 2.867-4.438 8.226-1.57 11.963l37.769 49.016-37.769 49.016c-2.867 3.737-2.168 9.096 1.57 11.963 3.704 2.867 9.096 2.185 11.964-1.553l41.762-54.221c2.373-3.072 2.373-7.338 0-10.41l-41.762-54.221c-1.69-2.184-4.233-3.328-6.759-3.328z" />
<glyph unicode="&#xea65;" glyph-name="Love-Window" d="M503.466 10.666h-494.933c-4.71 0-8.534 3.84-8.534 8.534v409.6c0 4.71 3.823 8.534 8.534 8.534h494.933c4.693 0 8.534-3.823 8.534-8.534v-409.6c0-4.694-3.84-8.534-8.534-8.534zM17.067 27.733h477.866v392.534h-477.866v-392.534zM494.933 334.933h-477.866c-4.71 0-8.534 3.823-8.534 8.534s3.823 8.534 8.534 8.534h477.866c4.693 0 8.534-3.823 8.534-8.534s-3.84-8.534-8.534-8.534zM259.277 42.666c-1.45 0-2.918 0.358-4.232 1.127-100.95 57.668-120.951 112.009-119.962 147.473 1.126 40.823 29.713 68.642 42.582 75.077 11.776 5.888 23.108 8.875 33.707 8.875 22.084 0 38.622-12.954 47.923-30.498 9.267 17.544 25.839 30.498 47.94 30.498 10.599 0 21.93-2.987 33.707-8.875 12.868-6.434 41.438-34.27 42.565-75.077 1.007-35.447-19.029-89.805-119.978-147.473-1.314-0.768-2.782-1.127-4.25-1.127zM211.37 258.15c-7.919 0-16.691-2.372-26.078-7.082-8.534-4.267-32.205-26.453-33.143-60.279-1.212-43.298 35.823-88.098 107.144-129.758 71.322 41.625 108.356 86.425 107.144 129.758-0.938 33.809-24.593 56.030-33.11 60.279-9.387 4.694-18.159 7.082-26.078 7.082-27.187 0-39.407-28.109-39.407-48.077 0-4.693-3.84-8.534-8.534-8.534s-8.534 3.84-8.534 8.534c-0.034 19.968-12.237 48.077-39.407 48.077zM68.079 381.866c0-5.888-4.779-10.666-10.666-10.666s-10.666 4.779-10.666 10.666c0 5.888 4.779 10.667 10.666 10.667s10.666-4.779 10.666-10.667zM110.746 381.866c0-5.888-4.778-10.666-10.666-10.666s-10.666 4.779-10.666 10.666c0 5.888 4.778 10.667 10.666 10.667s10.666-4.779 10.666-10.667zM153.412 381.866c0-5.888-4.779-10.666-10.667-10.666s-10.666 4.779-10.666 10.666c0 5.888 4.779 10.667 10.666 10.667s10.666-4.779 10.666-10.667z" />
<glyph unicode="&#xea6f;" glyph-name="Magnifi-Glass2" d="M199.117 99.857c-48.248 0-93.627 18.841-127.744 53.094-70.469 70.725-70.469 185.754 0 256.426 34.117 34.27 79.496 53.146 127.744 53.146 48.264 0 93.645-18.876 127.778-53.146 70.469-70.673 70.469-185.702 0-256.409-34.134-34.27-79.496-53.111-127.778-53.111zM199.117 445.457c-43.708 0-84.787-17.084-115.661-48.111-63.83-64.034-63.83-168.261 0-232.346 30.907-30.993 71.987-48.060 115.661-48.060 43.708 0 84.804 17.067 115.712 48.077 63.795 64.069 63.795 168.311 0 232.329-30.925 31.010-72.005 48.111-115.712 48.111zM459.793-14.524c-8.534 0-16.572 3.328-22.596 9.387l-146.005 146.569 46.831 47.019 146.107-146.586c12.459-12.493 12.459-32.837-0.034-45.312l-1.673-1.69c-6.058-6.041-14.063-9.387-22.63-9.387zM315.307 141.397l134.007-134.502c5.598-5.598 15.428-5.632 21.060 0l1.673 1.69c5.837 5.854 5.871 15.343 0.034 21.214l-134.042 134.434-22.733-22.835z" />
<glyph unicode="&#xea70;" glyph-name="Mail-2" d="M503.466 53.334h-494.933c-4.694 0-8.534 3.84-8.534 8.534v324.267c0 4.711 3.84 8.534 8.534 8.534h494.933c4.711 0 8.534-3.823 8.534-8.534v-324.267c0-4.694-3.823-8.534-8.534-8.534zM17.067 70.4h477.866v307.2h-477.866v-307.2zM260.062 196.267c-1.195 0-2.423 0.273-3.55 0.785l-251.546 115.729c-4.284 1.963-6.161 7.031-4.181 11.315 1.962 4.267 7.014 6.161 11.315 4.182l251.546-115.729c4.284-1.962 6.161-7.031 4.181-11.315-1.433-3.14-4.522-4.966-7.765-4.966zM260.079 196.267c-3.243 0-6.349 1.861-7.782 5-1.946 4.284-0.051 9.353 4.232 11.298l234.667 106.666c4.318 1.962 9.353 0.051 11.298-4.232s0.051-9.353-4.233-11.298l-234.666-106.667c-1.144-0.495-2.321-0.768-3.515-0.768z" />
<glyph unicode="&#xea90;" glyph-name="Male-2" d="M113.766 17.851c-2.424 0-4.796 1.024-6.486 2.986-3.072 3.584-2.645 8.96 0.939 12.032 14.216 12.168 34.492 18.329 60.228 18.329h19.507l24.866 34.406c2.748 3.823 8.107 4.659 11.912 1.911 3.823-2.782 4.677-8.123 1.911-11.93l-27.409-37.922c-1.605-2.236-4.181-3.533-6.912-3.533h-23.859c-21.572 0-38.093-4.779-49.135-14.233-1.638-1.382-3.584-2.048-5.564-2.048zM400.35 16.281c-2.116 0-4.25 0.785-5.888 2.389-10.769 10.274-27.529 15.462-49.834 15.462h-23.825c-2.714 0-5.274 1.297-6.861 3.464l-28.075 37.922c-2.799 3.823-2.014 9.147 1.775 11.947 3.806 2.816 9.13 2.014 11.93-1.775l25.514-34.491h19.558c26.812 0 47.565-6.776 61.577-20.224 3.413-3.243 3.533-8.67 0.29-12.066-1.673-1.741-3.909-2.628-6.161-2.628zM255.898 66.85c-49.288 0-91.579 62.447-92.552 114.398-22.681 53.368-6.998 101.462-3.43 111.070 0.325 31.402 10.615 60.091 77.654 60.757 42.615 25.549 86.118 20.582 106.906-9.489 10.769-15.599 13.602-35.277 7.8-53.197 4.438-16.231 21.077-84.446-3.909-111.070-1.928-51.592-43.793-112.469-92.467-112.469zM291.823 352.973c-14.609 0-30.55-5.274-47.309-15.667-1.365-0.837-2.901-1.28-4.506-1.28-58.368 0-62.993-19.643-62.993-45.346 0-1.109-0.222-2.236-0.649-3.26-0.205-0.478-19.559-48.776 3.345-100.95 0.478-1.075 0.717-2.253 0.717-3.43 0-43.707 35.55-99.141 75.503-99.141 39.936 0 75.486 55.433 75.486 99.14 0 2.526 1.127 4.95 3.089 6.57 17.186 14.216 9.541 68.079 0.666 98.68-0.512 1.775-0.409 3.669 0.222 5.41 5.086 13.363 3.226 28.382-4.898 40.175-8.567 12.305-22.272 19.098-38.673 19.098zM256-29.866c-139.981 0-253.867 113.886-253.867 253.867s113.886 253.867 253.867 253.867c139.964 0 253.866-113.886 253.866-253.867s-113.903-253.867-253.867-253.867zM256 460.8c-130.577 0-236.8-106.223-236.8-236.8 0-130.56 106.223-236.8 236.8-236.8 130.56 0 236.8 106.24 236.8 236.8 0 130.577-106.24 236.8-236.8 236.8z" />
<glyph unicode="&#xea93;" glyph-name="MaleFemale" horiz-adv-x="615" d="M609.946-10.053c-4.693 0-8.534 3.823-8.534 8.534 0 53.231-86.46 98.134-140.8 98.134-3.67 0-6.929 2.355-8.106 5.837l-21.334 64c-1.467 4.488 0.938 9.301 5.376 10.786 4.522 1.536 9.301-0.938 10.803-5.393l19.456-58.3c62.072-3.123 151.672-51.49 151.672-115.046 0-4.693-3.806-8.55-8.534-8.55zM396.613 160.615c-4.694 0-8.534 3.823-8.534 8.534s3.84 8.534 8.534 8.534c106.735 0 148.292 54.203 160.905 76.578-8.567 14.558-36.266 62.72-41.199 83.593-8.635 36.505-37.529 121.43-119.706 121.43-4.693 0-8.534 3.823-8.534 8.534s3.84 8.534 8.534 8.534c66.44 0 116.105-49.050 136.294-134.571 4.266-17.988 31.539-65.945 41.677-82.91 1.485-2.492 1.621-5.598 0.324-8.192-10.564-21.129-54.63-90.061-178.296-90.061zM225.963 117.947c-61.389 0-107.912 66.236-111.667 128.495-26.692 3.345-28.945 22.971-28.945 29.371v42.667c0 12.168 10.718 21.521 17.067 25.993v38.007c0 50.875 30.14 72.005 103.85 72.534 30.276 21.863 59.443 26.505 78.78 26.505 37.069 0 69.069-16.709 81.493-42.599 9.13-19.029 6.229-40.022-8.175-59.358v-35.106c6.366-4.471 17.067-13.824 17.067-25.993v-42.666c0-13.363-10.428-26.846-33.433-29.423-4.216-60.041-54.392-128.427-116.036-128.427zM285.048 464.469c-17.238 0-43.52-4.301-70.844-24.798-1.468-1.109-3.243-1.706-5.12-1.706-82.757 0-89.6-26.249-89.6-55.466v-42.667c0-3.072-1.672-5.922-4.352-7.441-5.342-3.021-12.731-9.523-12.731-13.892v-42.666c0-3.823 0-12.8 20.173-12.8 4.71 0 8.533-3.823 8.533-8.534 0-55.228 41.421-119.466 94.84-119.466 55.006 0 99.294 65.365 99.294 119.466 0 4.71 3.84 8.534 8.534 8.534 14.507 0 24.61 5.257 24.61 12.8v42.666c0 4.369-7.51 10.991-12.68 13.892-2.697 1.502-4.386 4.352-4.386 7.441v42.666c0 1.945 0.649 3.823 1.843 5.325 11.827 14.814 14.575 29.935 7.97 43.725-9.455 19.678-36.010 32.922-66.082 32.922zM8.534-33.519c-4.71 0-8.534 3.823-8.534 8.534v23.466c0 60.109 40.602 96 108.612 96h27.528l34.492 49.869c2.679 3.891 7.987 4.847 11.879 2.168 3.874-2.68 4.847-8.022 2.15-11.844l-37.035-53.572c-1.587-2.304-4.215-3.687-7.014-3.687h-31.983c-58.181 0-91.546-28.791-91.546-78.933v-23.466c-0.017-4.711-3.84-8.533-8.55-8.533zM452.284-33.519c-4.693 0-8.534 3.823-8.534 8.534v23.466c0 58.18-50.995 78.933-98.731 78.933h-32c-2.935 0-5.683 1.519-7.236 4.010l-33.45 53.555c-2.491 3.976-1.28 9.25 2.714 11.742 4.010 2.491 9.267 1.246 11.759-2.731l30.959-49.51h27.289c70.332 0 115.763-37.683 115.763-96v-23.466c0-4.711-3.84-8.534-8.534-8.534z" />
<glyph unicode="&#xea99;" glyph-name="Map-Marker2" d="M256 259.909c-34.117 0-61.867 27.75-61.867 61.866s27.75 61.867 61.867 61.867 61.866-27.75 61.866-61.867-27.75-61.866-61.867-61.866zM256 366.575c-24.696 0-44.8-20.104-44.8-44.8s20.105-44.8 44.8-44.8 44.8 20.105 44.8 44.8-20.104 44.8-44.8 44.8zM255.983-31.642v0c-4.71 0-8.534 3.84-8.534 8.534v0 0c0 15.462-55.125 134.127-103.424 183.825-28.843 29.747-67.225 76.561-67.225 139.725 0 98.816 80.384 179.2 179.2 179.2s179.2-80.384 179.2-179.2c0-53.897-26.897-104.96-77.773-147.627-60.587-50.875-92.894-159.966-92.894-175.906v0c-0.017-4.711-3.857-8.55-8.55-8.55zM256 462.575c-89.395 0-162.133-72.738-162.133-162.133 0-43.35 19.849-83.951 62.447-127.778 36.983-38.093 79.394-115.832 98.27-162.338 12.954 43.384 43.589 114.927 91.887 155.529 32.7 27.409 71.663 73.046 71.663 134.587 0 89.395-72.738 162.134-162.134 162.134z" />
<glyph unicode="&#xea9f;" glyph-name="Marker" d="M259.772 125.235l-106.026 106.026 12.066 12.066 106.026-106.026-12.066-12.066zM39.339-1.195c-2.184 0-4.369 0.837-6.041 2.491-3.328 3.311-3.328 8.755 0 12.066l50.791 50.757c3.328 3.345 8.755 3.345 12.066 0 3.328-3.311 3.328-8.738 0-12.066l-50.791-50.774c-1.639-1.639-3.84-2.474-6.024-2.474zM132.421 24.166c-2.185 0-4.369 0.837-6.041 2.491l-67.669 67.67c-3.328 3.311-3.328 8.738 0 12.066l59.222 59.255c3.328 3.311 8.738 3.311 12.066 0s3.328-8.755 0-12.066l-53.197-53.214 55.603-55.603 53.197 53.163c3.328 3.328 8.738 3.328 12.066 0s3.328-8.738 0-12.066l-59.239-59.204c-1.655-1.656-3.84-2.491-6.007-2.491zM217.019 74.94v0c-2.27 0-4.438 0.904-6.042 2.491l-101.529 101.546c-3.328 3.328-3.328 8.738 0 12.066l253.798 253.781c2.014 2.014 5.598 4.386 11.315 4.386 27.733 0 91.529-64.905 103.851-94.584 5.308-12.749 2.065-19.781-1.57-23.416l-253.798-253.781c-1.57-1.604-3.755-2.491-6.024-2.491zM127.556 185.002l89.463-89.464 247.757 247.722c-0.273 1.007-3.158 11.486-20.616 32.41-26.129 31.283-59.426 56.474-69.598 56.474l-247.006-247.143z" />
<glyph unicode="&#xeaa7;" glyph-name="Medal" d="M256-28.962c-71.373 0-129.417 58.043-129.417 129.399 0 71.373 58.043 129.417 129.417 129.417s129.417-58.061 129.417-129.417c0-71.356-58.061-129.399-129.417-129.399zM256 212.77c-61.969 0-112.35-50.398-112.35-112.333 0-61.969 50.381-112.367 112.35-112.367 61.952 0 112.35 50.398 112.35 112.367 0 61.935-50.398 112.333-112.35 112.333zM256 18.125c-45.38 0-82.296 36.933-82.296 82.313s36.915 82.279 82.296 82.279c45.363 0 82.296-36.898 82.296-82.279s-36.933-82.313-82.296-82.313zM256 165.666c-35.959 0-65.229-29.269-65.229-65.229s29.269-65.229 65.229-65.229 65.229 29.269 65.229 65.229-29.269 65.229-65.229 65.229zM255.983 226.099c-3.772 0-7.219 2.509-8.226 6.315l-63.13 233.797c-1.229 4.557 1.468 9.233 6.042 10.462 4.523 1.212 9.233-1.451 10.445-6.007l63.112-233.797c1.229-4.557-1.467-9.233-6.024-10.462-0.717-0.205-1.467-0.307-2.219-0.307zM154.607 157.73c-3.686 0-7.083 2.406-8.175 6.093l-89.737 302.166c-1.349 4.522 1.246 9.267 5.752 10.615 4.557 1.331 9.267-1.229 10.616-5.752l89.719-302.149c1.349-4.539-1.212-9.267-5.751-10.632-0.819-0.222-1.638-0.341-2.423-0.341zM256 226.099c-0.734 0-1.502 0.102-2.253 0.307-4.557 1.229-7.237 5.922-6.024 10.462l63.113 233.797c1.229 4.557 5.957 7.219 10.445 6.007 4.574-1.229 7.253-5.905 6.041-10.462l-63.113-233.797c-1.007-3.789-4.454-6.315-8.209-6.315zM357.376 157.73c-0.802 0-1.622 0.12-2.423 0.358-4.539 1.331-7.099 6.075-5.752 10.599l89.719 302.183c1.349 4.522 6.041 7.082 10.615 5.752 4.522-1.349 7.099-6.093 5.752-10.615l-89.719-302.183c-1.11-3.687-4.505-6.093-8.192-6.093z" />
<glyph unicode="&#xeae9;" glyph-name="Mustache-2" d="M501.675 119.193c-0.973 0-1.928 0.171-2.867 0.495-1.622 0.563-161.536 57.293-242.774 84.668-83.882-28.928-242.875-84.668-242.875-84.668-2.697-0.955-5.666-0.478-7.936 1.195-2.27 1.707-3.55 4.421-3.413 7.253 0.103 2.031 11.725 200.67 168.857 200.67 45.977 0 71.356-15.599 85.334-31.778 13.961 16.179 39.373 31.778 85.334 31.778 157.15 0 168.772-198.673 168.875-200.653 0.137-2.833-1.144-5.563-3.43-7.271-1.519-1.092-3.311-1.69-5.103-1.69zM170.649 311.757c-120.507 0-145.647-129.416-150.648-171.589 39.646 13.892 163.959 57.43 233.199 81.305 1.775 0.615 3.72 0.632 5.496 0.017 67.413-22.664 193.229-67.123 233.25-81.288-5 42.257-30.191 171.52-150.63 171.52-38.195 0-64.461-11.298-78.063-33.587-3.089-5.086-11.469-5.069-14.575 0-13.585 22.306-39.834 33.621-78.029 33.621z" />
<glyph unicode="&#xeaea;" glyph-name="Mustache-3" d="M173.5 160.734v0c-109.261 0.034-157.713 67.55-159.727 70.434-1.928 2.765-2.048 6.4-0.307 9.285 1.741 2.901 5.034 4.488 8.363 4.062 0.137-0.017 13.755-1.69 32.666-1.69 27.819 0 78.302 3.806 103.766 29.269 0.99 0.99 2.167 1.707 3.464 2.099 10.838 8.312 24.849 13.056 38.878 13.056 34.901 0 64.358-28.331 64.358-61.867 0-28.689-23.33-54.358-44.903-60.382-0.717-0.341-1.485-0.58-2.304-0.717-15.087-2.355-29.969-3.55-44.254-3.55zM41.626 226.014c20.258-18.671 63.147-48.214 131.84-48.214h0.017c12.919 0 26.368 1.075 40.038 3.123 0.307 0.12 0.631 0.222 0.973 0.29 13.619 3.192 33.399 21.999 33.399 44.185 0 24.286-21.674 44.8-47.309 44.8-10.855 0-22.067-4.027-30.037-10.769-0.7-0.598-1.502-1.075-2.338-1.416-28.672-26.59-77.431-32.239-113.733-32.239-4.608 0-8.943 0.085-12.851 0.239zM339.968 160.734c-13.056 0-26.402 1.212-39.697 3.601-0.409 0.068-0.837 0.188-1.212 0.307-33.775 4.574-52.344 26.095-52.344 60.757 0 34.697 26.522 61.866 60.399 61.866 14.012 0 27.289-4.727 38.434-13.704 0.734-0.375 1.399-0.854 1.997-1.451 25.464-25.464 78.592-29.269 108.032-29.269 20.002 0 34.491 1.673 34.645 1.69 3.515 0.393 6.81-1.331 8.499-4.386 1.69-3.072 1.314-6.827-0.921-9.523-2.373-2.85-58.897-69.888-157.833-69.888zM304.862 180.856c11.776-2.014 23.603-3.055 35.141-3.055 62.072 0 106.496 29.354 128.666 48.197-3.993-0.137-8.397-0.222-13.107-0.222-38.536 0-90.163 5.751-118.767 32.973-0.325 0.205-0.632 0.426-0.921 0.683-8.312 7.048-18.245 10.769-28.791 10.769-24.269 0-43.315-19.678-43.315-44.8 0-26.573 12.749-40.96 38.981-44.032 0.751-0.068 1.45-0.273 2.116-0.512z" />
<glyph unicode="&#xeaeb;" glyph-name="Mustache-4" d="M135.577 136.431c-0.017 0-0.017 0 0 0-49.852 0-85.726 12.663-106.599 37.598-24.405 29.167-18.517 63.949-18.262 65.416 0.649 3.601 3.515 6.383 7.117 6.929s7.168-1.263 8.858-4.506c0.614-1.161 15.803-29.099 50.227-29.099 24.49 0 52.873 13.875 84.344 41.165 0.853 0.734 1.843 1.297 2.901 1.655 10.838 8.345 24.832 13.090 38.81 13.090 34.629 0 62.805-27.75 62.805-61.866 0-28.774-22.818-54.392-43.981-60.365-0.631-0.307-1.297-0.512-1.997-0.666-31.3-6.195-59.648-9.353-84.224-9.353zM28.535 213.521c1.843-8.943 5.752-19.303 13.704-28.723 17.493-20.77 48.896-31.3 93.337-31.3v0c23.074 0 49.767 2.935 79.36 8.704 0.41 0.171 0.837 0.307 1.28 0.392 13.244 3.106 32.495 21.829 32.495 44.185 0 24.696-20.514 44.8-45.739 44.8-10.769 0-21.965-4.028-29.918-10.769-0.785-0.666-1.673-1.161-2.594-1.519-33.911-28.928-65.365-43.606-93.525-43.606-21.913 0.034-37.785 8.721-48.401 17.834zM380.058 136.431c-23.023 0-49.391 3.158-78.37 9.336-0.325 0.068-0.632 0.171-0.921 0.273-33.622 4.574-52.053 26.061-52.053 60.774 0 34.117 27.478 61.867 61.252 61.867 13.926 0 27.17-4.796 38.366-13.875 0.512-0.307 1.024-0.683 1.467-1.109 23.757-22.562 48.726-34.014 74.308-34.014 37.206 0 63.062 24.201 63.317 24.457 2.355 2.236 5.735 2.935 8.789 1.843s5.223-3.823 5.598-7.031c0.171-1.519 4.096-37.751-21.999-67.072-20.941-23.518-54.477-35.447-99.755-35.447zM306.841 162.134c78.216-16.469 133.342-9.13 160.205 21.043 11.059 12.476 15.428 26.658 17.067 37.291-13.159-8.209-34.134-17.903-60.024-17.903-29.713 0-58.317 12.731-85.043 37.769-0.222 0.154-0.409 0.307-0.632 0.461-8.277 7.048-18.142 10.769-28.433 10.769-24.389 0-44.202-20.105-44.202-44.8 0-26.607 12.63-40.96 38.69-44.032 0.837-0.068 1.639-0.273 2.373-0.598zM19.114 229.393c-4.71 0-8.534 3.823-8.534 8.534 0 52.327 27.119 68.181 49.852 72.261 22.852 4.079 35.653-1.758 42.359-7.373 6.775-5.666 10.513-13.858 10.513-23.023 0-10.615-4.403-16.982-8.090-20.446-8.858-8.328-21.231-7.816-22.63-7.731-4.694 0.29-8.278 4.335-7.987 9.046 0.29 4.694 4.318 8.295 9.046 7.987 1.672-0.086 6.981 0.341 9.933 3.174 1.792 1.724 2.68 4.318 2.68 7.97 0 4.147-1.468 7.475-4.386 9.933-5.462 4.574-15.821 5.905-28.399 3.652-24.098-4.318-35.806-22.459-35.806-55.466-0.017-4.694-3.84-8.517-8.55-8.517zM493.295 229.393c-4.711 0-8.534 3.823-8.534 8.534 0 22.186-6.639 49.8-38.144 55.467-12.578 2.236-22.954 0.921-28.399-3.653-2.918-2.457-4.386-5.786-4.386-9.933 0-5.462 2.048-7.39 2.731-8.022 3.498-3.294 9.848-3.141 9.882-3.141 4.779 0.307 8.755-3.294 9.046-7.987 0.29-4.71-3.294-8.755-8.005-9.046-1.399-0.085-13.79-0.597-22.63 7.731-3.67 3.464-8.089 9.83-8.089 20.446 0 9.165 3.755 17.357 10.513 23.023 6.741 5.615 19.507 11.452 42.36 7.373 33.144-5.939 52.207-32.29 52.207-72.26-0.017-4.71-3.84-8.534-8.55-8.534z" />
<glyph unicode="&#xeaf5;" glyph-name="Navigation-LeftWindow" d="M503.466 19.2h-494.933c-4.71 0-8.534 3.84-8.534 8.534v392.534c0 4.71 3.823 8.534 8.534 8.534h494.933c4.693 0 8.534-3.823 8.534-8.534v-392.534c0-4.694-3.84-8.534-8.534-8.534zM17.067 36.267h477.866v375.466h-477.866v-375.466zM494.933 326.4h-477.866c-4.71 0-8.534 3.823-8.534 8.534s3.823 8.534 8.534 8.534h477.866c4.693 0 8.534-3.823 8.534-8.534s-3.84-8.534-8.534-8.534zM89.412 386.134c0-5.888-4.778-10.667-10.666-10.667s-10.666 4.779-10.666 10.667c0 5.888 4.778 10.666 10.666 10.666s10.666-4.779 10.666-10.666zM132.079 386.134c0-5.888-4.778-10.667-10.666-10.667s-10.666 4.779-10.666 10.667c0 5.888 4.778 10.666 10.666 10.666s10.666-4.779 10.666-10.666zM174.745 386.134c0-5.888-4.779-10.667-10.666-10.667s-10.666 4.779-10.666 10.667c0 5.888 4.779 10.666 10.666 10.666s10.666-4.779 10.666-10.666z" />
<glyph unicode="&#xeb0d;" glyph-name="Notepad" d="M392.534-32h-358.4c-4.71 0-8.534 3.84-8.534 8.534v409.6c0 4.711 3.823 8.534 8.534 8.534h358.4c4.693 0 8.534-3.823 8.534-8.534v-409.6c0-4.693-3.84-8.534-8.534-8.534zM42.666-14.933h341.334v392.534h-341.334v-392.534zM460.8-6.4c-3.874 0-7.253 2.594-8.226 6.332l-17.067 64c-0.205 0.717-0.307 1.45-0.307 2.202v337.067c0 4.711 3.84 8.534 8.534 8.534h34.133c4.693 0 8.534-3.823 8.534-8.534v-337.067c0-0.751-0.103-1.485-0.307-2.202l-17.067-64c-0.973-3.738-4.352-6.332-8.226-6.332zM452.267 67.226l8.534-32 8.534 32v327.441h-17.067v-327.441zM469.334 326.4h-17.067c-4.694 0-8.534 3.823-8.534 8.534s3.84 8.534 8.534 8.534h17.067c4.694 0 8.534-3.823 8.534-8.534s-3.84-8.534-8.534-8.534zM469.334 70.4h-17.067c-4.694 0-8.534 3.84-8.534 8.534s3.84 8.534 8.534 8.534h17.067c4.694 0 8.534-3.84 8.534-8.534s-3.84-8.534-8.534-8.534zM307.2 386.134c-4.694 0-8.534 3.823-8.534 8.534v17.066h-27.938c-4.711 0-8.534 3.823-8.534 8.534 0 26.709-12.766 42.666-34.133 42.666h-21.333c-21.368 0-34.133-15.957-34.133-42.666 0-4.71-3.84-8.534-8.534-8.534h-36.062v-17.066c0-4.711-3.823-8.534-8.534-8.534s-8.534 3.823-8.534 8.534v25.6c0 4.711 3.823 8.534 8.534 8.534h36.472c3.294 35.277 27.153 51.2 50.825 51.2h21.334c23.654 0 47.48-15.923 50.808-51.2h28.331c4.711 0 8.534-3.823 8.534-8.534v-25.6c-0.034-4.711-3.874-8.534-8.567-8.534zM341.334 19.2h-256c-4.71 0-8.534 3.84-8.534 8.534v307.2c0 4.711 3.823 8.534 8.534 8.534h256c4.694 0 8.534-3.823 8.534-8.534v-307.2c0-4.694-3.84-8.534-8.534-8.534zM93.867 36.267h238.934v290.134h-238.934v-290.134zM281.6 258.134h-136.534c-4.71 0-8.534 3.823-8.534 8.534s3.823 8.534 8.534 8.534h136.534c4.693 0 8.534-3.823 8.534-8.534s-3.84-8.534-8.534-8.534zM281.6 189.866h-136.534c-4.71 0-8.534 3.84-8.534 8.534s3.823 8.534 8.534 8.534h136.534c4.693 0 8.534-3.84 8.534-8.534s-3.84-8.534-8.534-8.534zM281.6 121.6h-136.534c-4.71 0-8.534 3.84-8.534 8.534s3.823 8.534 8.534 8.534h136.534c4.693 0 8.534-3.84 8.534-8.534s-3.84-8.534-8.534-8.534z" />
<glyph unicode="&#xeb28;" glyph-name="Orientation-2" d="M471.466 36.267h-174.933c-22.375 0-40.534 18.159-40.534 40.534v362.666c0 22.358 18.159 40.534 40.534 40.534h174.933c22.375 0 40.534-18.176 40.534-40.534v-362.666c0-22.375-18.159-40.534-40.534-40.534zM296.534 462.933c-12.937 0-23.466-10.53-23.466-23.466v-362.666c0-12.937 10.53-23.466 23.466-23.466h174.933c12.937 0 23.466 10.53 23.466 23.466v362.666c0 12.937-10.53 23.466-23.466 23.466h-174.933zM494.933 411.733h-221.866c-4.693 0-8.534 3.823-8.534 8.534s3.84 8.534 8.534 8.534h221.866c4.693 0 8.534-3.823 8.534-8.534s-3.84-8.534-8.534-8.534zM494.933 104.534h-221.866c-4.693 0-8.534 3.84-8.534 8.534s3.84 8.534 8.534 8.534h221.866c4.693 0 8.534-3.84 8.534-8.534s-3.84-8.534-8.534-8.534zM400.862-32h-362.649c-22.852 0-38.212 23.159-38.212 44.8v170.666c0 23.108 16.418 40.534 38.212 40.534h217.787c4.711 0 8.534-3.823 8.534-8.534 0-4.693-3.823-8.534-8.534-8.534h-217.787c-12.254 0-21.145-9.865-21.145-23.466v-170.667c0-13.142 8.687-27.733 21.145-27.733h362.667c12.527 0 25.788 14.25 25.788 27.733v23.466c0 4.693 3.84 8.534 8.534 8.534s8.534-3.84 8.534-8.534v-23.466c0-23.040-20.839-44.8-42.871-44.8zM59.733-23.466c-4.711 0-8.533 3.84-8.533 8.534v221.866c0 4.693 3.823 8.534 8.534 8.534s8.534-3.84 8.534-8.534v-221.866c0-4.693-3.823-8.534-8.534-8.534zM366.933-23.466c-4.693 0-8.534 3.84-8.534 8.534v51.2c0 4.694 3.84 8.534 8.534 8.534s8.534-3.84 8.534-8.534v-51.2c0-4.693-3.84-8.534-8.534-8.534z" />
<glyph unicode="&#xeb3f;" glyph-name="Password-2shopping" d="M443.733-22.664h-375.466c-4.71 0-8.534 3.823-8.534 8.534 0 4.693 3.823 8.534 8.534 8.534h375.466c4.694 0 8.534-3.84 8.534-8.534 0-4.711-3.84-8.534-8.534-8.534zM68.266-22.664c-34.458 0-68.266 33.792-68.266 68.267 0 4.694 3.823 8.534 8.534 8.534s8.534-3.84 8.534-8.534c0-24.901 26.317-51.2 51.2-51.2 4.71 0 8.534-3.84 8.534-8.534 0-4.711-3.823-8.534-8.534-8.534zM443.733-22.664c-4.694 0-8.534 3.823-8.534 8.534 0 4.693 3.84 8.534 8.534 8.534 24.883 0 51.2 26.3 51.2 51.2 0 4.694 3.84 8.534 8.534 8.534s8.534-3.84 8.534-8.534c0-34.474-33.792-68.267-68.267-68.267zM503.466 37.069c-4.693 0-8.534 3.823-8.534 8.534v153.6c0 4.693 3.84 8.534 8.534 8.534s8.534-3.84 8.534-8.534v-153.6c0-4.711-3.84-8.534-8.534-8.534zM503.466 190.669c-4.693 0-8.534 3.823-8.534 8.534 0 26.948-32.188 34.133-51.2 34.133-4.694 0-8.534 3.823-8.534 8.534s3.84 8.534 8.534 8.534c32.887 0 68.267-16.008 68.267-51.2 0-4.711-3.84-8.534-8.534-8.534zM443.733 233.319h-426.666c-4.71 0-8.534 3.823-8.534 8.534s3.823 8.534 8.534 8.534h426.666c4.694 0 8.534-3.823 8.534-8.534s-3.84-8.534-8.534-8.534zM25.413 237.585c-4.71 0-8.534 3.823-8.534 8.534 0 119.603 114.893 224.529 245.863 224.529 4.711 0 8.534-3.823 8.534-8.534s-3.823-8.534-8.534-8.534c-119.74 0-228.796-98.885-228.796-207.463 0-4.694-3.823-8.534-8.534-8.534zM493.192 291.925c-3.806 0-7.271 2.56-8.243 6.4-22.135 85.623-121.822 155.272-222.208 155.272-4.711 0-8.534 3.823-8.534 8.534s3.823 8.534 8.534 8.534c107.673 0 214.75-75.383 238.712-168.072 1.178-4.557-1.553-9.216-6.11-10.393-0.751-0.205-1.45-0.273-2.151-0.273zM8.534 37.069c-4.71 0-8.534 3.823-8.534 8.534v153.6c0 4.693 3.823 8.534 8.534 8.534s8.534-3.84 8.534-8.534v-153.6c0-4.711-3.823-8.534-8.534-8.534zM238.745 45.602c-39.987 0-72.534 32.512-72.534 72.534 0 40.005 32.546 72.534 72.534 72.534s72.534-32.529 72.534-72.534c0-40.022-32.546-72.534-72.534-72.534zM238.745 173.602c-30.584 0-55.466-24.901-55.466-55.466 0-30.601 24.883-55.466 55.466-55.466s55.466 24.866 55.466 55.466c0 30.567-24.883 55.466-55.466 55.466z" />
<glyph unicode="&#xeb4e;" glyph-name="Pencil-Ruler" d="M384-32h-102.4c-4.693 0-8.534 3.84-8.534 8.534v494.933c0 4.711 3.84 8.534 8.534 8.534h102.4c4.693 0 8.534-3.823 8.534-8.534v-494.933c0-4.693-3.84-8.534-8.534-8.534zM290.134-14.933h85.334v477.866h-85.334v-477.866zM324.267 326.4h-34.133c-4.693 0-8.534 3.823-8.534 8.534s3.84 8.534 8.534 8.534h34.134c4.693 0 8.534-3.823 8.534-8.534s-3.84-8.534-8.534-8.534zM307.2 292.267h-17.067c-4.694 0-8.534 3.823-8.534 8.534s3.84 8.534 8.534 8.534h17.067c4.694 0 8.534-3.823 8.534-8.534s-3.84-8.534-8.534-8.534zM324.267 394.666h-34.133c-4.693 0-8.534 3.823-8.534 8.534s3.84 8.534 8.534 8.534h34.134c4.693 0 8.534-3.823 8.534-8.534s-3.84-8.534-8.534-8.534zM307.2 360.534h-17.067c-4.694 0-8.534 3.823-8.534 8.534s3.84 8.534 8.534 8.534h17.067c4.694 0 8.534-3.823 8.534-8.534s-3.84-8.534-8.534-8.534zM324.267 258.134h-34.133c-4.693 0-8.534 3.823-8.534 8.534s3.84 8.534 8.534 8.534h34.134c4.693 0 8.534-3.823 8.534-8.534s-3.84-8.534-8.534-8.534zM307.2 224h-17.067c-4.694 0-8.534 3.823-8.534 8.534s3.84 8.534 8.534 8.534h17.067c4.694 0 8.534-3.823 8.534-8.534s-3.84-8.534-8.534-8.534zM324.267 189.866h-34.133c-4.693 0-8.534 3.84-8.534 8.534s3.84 8.534 8.534 8.534h34.134c4.693 0 8.534-3.84 8.534-8.534s-3.84-8.534-8.534-8.534zM307.2 155.733h-17.067c-4.694 0-8.534 3.84-8.534 8.534s3.84 8.534 8.534 8.534h17.067c4.694 0 8.534-3.84 8.534-8.534s-3.84-8.534-8.534-8.534zM324.267 121.6h-34.133c-4.693 0-8.534 3.84-8.534 8.534s3.84 8.534 8.534 8.534h34.134c4.693 0 8.534-3.84 8.534-8.534s-3.84-8.534-8.534-8.534zM307.2 87.466h-17.067c-4.694 0-8.534 3.84-8.534 8.534s3.84 8.534 8.534 8.534h17.067c4.694 0 8.534-3.84 8.534-8.534s-3.84-8.534-8.534-8.534zM324.267 53.334h-34.133c-4.693 0-8.534 3.84-8.534 8.534s3.84 8.534 8.534 8.534h34.134c4.693 0 8.534-3.84 8.534-8.534s-3.84-8.534-8.534-8.534zM307.2 19.2h-17.067c-4.694 0-8.534 3.84-8.534 8.534s3.84 8.534 8.534 8.534h17.067c4.694 0 8.534-3.84 8.534-8.534s-3.84-8.534-8.534-8.534zM204.8-13.875c-3.942 0-7.39 2.731-8.294 6.57l-25.6 107.623c-0.154 0.649-0.239 1.314-0.239 1.979v322.918c0 46.558 23.859 51.575 34.133 51.575s34.133-5.017 34.133-51.575v-322.918c0-0.666-0.069-1.331-0.239-1.979l-25.6-107.623c-0.905-3.823-4.352-6.57-8.294-6.57zM187.733 103.305l17.066-71.731 17.066 71.731v321.911c0 12.885-2.219 34.509-17.066 34.509s-17.066-21.624-17.066-34.509v-321.911zM187.733 121.6h34.133v-17.067h-34.133v17.067zM128 215.466c-4.71 0-8.534 3.823-8.534 8.534v145.067c0 4.71 3.823 8.534 8.534 8.534h110.933c4.71 0 8.534-3.823 8.534-8.534s-3.823-8.534-8.534-8.534h-102.4v-136.534c0-4.711-3.823-8.534-8.534-8.534z" />
<glyph unicode="&#xeb52;" glyph-name="People-onCloud" d="M51.2 4.369c-4.71 0-8.534 3.823-8.534 8.534v22.306c0 38.349 35.754 64.103 70.998 64.103 4.71 0 7.526-3.823 7.526-8.534s-2.321-8.534-7.031-8.534c-27.016 0-54.425-18.893-54.425-47.036v-22.306c0-4.728-3.823-8.534-8.534-8.534zM290.134 4.369c-4.711 0-8.534 3.823-8.534 8.534v22.63c0 28.365-19.575 46.695-46.797 46.695-4.71 0-9.541 3.823-9.541 8.534s5.325 8.534 10.035 8.534c36.438 0 63.368-26.214 63.368-63.761v-22.63c0-4.728-3.823-8.534-8.534-8.534zM174.37 64.103c-33.809 0-62.822 30.31-66.526 65.314-8.090 2.85-13.978 9.558-13.978 18.722v23.365c0 8.789 0 14.421 17.067 17.698v17.374c0 26.249 11.281 42.803 32.785 43.571 5.615 1.997 27.323 8.806 48.401 8.806 35.055 0 55.347-18.602 55.347-52.377v-15.855c0-2.782 17.066-11.042 17.066-19.217v-23.365c0-9.336-9.728-15.991-17.817-18.774-3.976-34.44-38.298-65.263-72.346-65.263zM110.933 169.865v-21.726c0-0.853 2.287-3.158 5.052-3.158 4.71 0 7.526-3.823 7.526-8.534 0-28.416 24.695-55.279 51.354-55.279 27.102 0 53.435 27.375 53.435 55.279 0 4.711 3.686 8.534 8.414 8.534 2.731 0 6.366 2.27 6.895 3.55l-0.102 22.971c0 0.87-0.631 3.14-6.553 3.14-4.71 0-6.553 3.823-6.553 8.534v23.399c0 24.081-13.841 35.311-39.287 35.311-21.078 0-43.554-8.124-43.759-8.209-0.99-0.375-0.512-0.563-1.553-0.563-16.776 0-17.8-16.623-17.8-26.538v-23.399c0-3.755-2.457-7.065-6.041-8.175-4.233-1.297-11.025-3.601-11.025-5.137zM311.74 81.169c-4.711 0-8.534 3.823-8.534 8.534s3.823 8.534 8.534 8.534c46.131 0 74.974 28.638 86.459 48.197-5.82 9.916-19.217 33.467-21.863 44.731-4.505 19.046-19.541 63.368-61.815 63.368-8.414 0-16.367-1.877-23.654-5.581-4.113-2.133-9.319-0.495-11.469 3.72-2.134 4.199-0.461 9.335 3.738 11.469 9.694 4.95 20.258 7.458 31.385 7.458 37.786 0 67.106-28.603 78.421-76.527 1.962-8.329 14.762-31.437 22.392-44.032 1.519-2.509 1.639-5.615 0.341-8.226-11.452-22.904-46.216-61.645-103.936-61.645zM426.666 4.369c-4.711 0-8.534 3.823-8.534 8.534v22.63c0 26.010-26.095 43.401-55.399 43.401h-50.995c-4.711 0-8.534 3.823-8.534 8.534s3.823 8.534 8.534 8.534h50.995c39.031 0 72.465-24.712 72.465-60.467v-22.63c0-4.728-3.823-8.534-8.534-8.534zM448.615 91.87c-3.345 0-6.536 1.979-7.885 5.291-1.792 4.352 0.273 9.336 4.625 11.127 28.808 11.896 47.428 39.731 47.428 70.912 0 27.597-14.575 52.394-38.963 66.338-2.85 1.638-4.522 4.762-4.284 8.038 0.341 4.369 0.58 7.577 0.58 10.871 0 89.395-72.721 162.117-162.099 162.117-74.137 0-138.684-50.21-156.979-122.129-1.007-3.909-4.438-6.81-8.653-6.417-1.075 0.051-2.15 0.188-3.209 0.341-0.597 0.086-1.195 0.188-1.826 0.188-54.118 0-98.15-43.963-98.15-98.014 0-27.546 10.496-52.941 29.559-71.475 3.362-3.277 3.447-8.687 0.17-12.066-3.294-3.362-8.704-3.464-12.066-0.171-22.409 21.777-34.73 51.524-34.73 83.712 0 63.147 51.183 114.586 114.296 115.081 22.511 75.725 92.091 128.017 171.606 128.017 98.799 0 179.166-80.384 179.166-179.183 0-2.338-0.103-4.625-0.256-6.929 26.607-17.288 42.923-46.831 42.923-78.319 0-38.127-22.767-72.158-57.993-86.681-1.075-0.443-2.168-0.649-3.26-0.649z" />
<glyph unicode="&#xeb58;" glyph-name="Phone-2" d="M236.458 58.76c-6.042 0-11.929 1.212-17.477 3.67l-31.881 14.131c-46.080 20.344-49.732 109.755-8.294 203.503 35.141 79.463 91.067 134.963 136.072 134.963 7.099 0 13.841-1.383 20.002-4.096l31.863-14.080c10.599-4.676 18.739-13.209 22.938-24.013 4.164-10.803 3.909-22.597-0.802-33.178l-9.37-21.265c-9.404-21.248-35.806-31.608-57.207-22.17l-31.897 14.063c-11.025 4.915-36.403-17.271-53.487-55.91-8.328-18.825-13.005-37.786-13.175-53.351-0.137-12.51 2.85-21.675 7.816-23.842l31.88-14.046c21.88-9.694 31.813-35.379 22.152-57.242l-9.387-21.265c-6.981-15.719-22.562-25.873-39.749-25.873zM314.863 397.978c-37.24 0-89.019-53.641-120.457-124.809-36.301-82.159-36.505-165.069-0.427-180.992l31.881-14.131c12.988-5.7 29.013 0.598 34.697 13.466l9.37 21.265c5.888 13.243-0.171 28.808-13.432 34.697l-31.863 14.063c-11.827 5.24-18.227 19.303-17.988 39.663 0.205 17.834 5.393 39.168 14.626 60.075 20.48 46.336 53.743 74.479 75.998 64.632l31.88-14.063c13.039-5.751 28.997 0.563 34.697 13.448l9.404 21.265c2.833 6.434 3.021 13.568 0.461 20.122-2.509 6.553-7.475 11.742-13.875 14.575l-31.846 14.080c-4.027 1.775-8.414 2.645-13.125 2.645zM256.034-29.866c-40.106 0-64.615 8.584-74.991 26.265-14.37 24.507 3.653 56.712 16.81 80.248l1.946 3.464c2.287 4.113 7.475 5.615 11.606 3.311s5.615-7.475 3.311-11.623l-1.963-3.515c-10.513-18.808-26.402-47.24-16.999-63.283 6.844-11.656 27.682-17.817 60.245-17.817 130.577 0 236.8 106.24 236.8 236.8 0 130.577-106.24 236.8-236.8 236.8-130.56 0.017-236.783-106.206-236.783-236.783 0-68.147 29.406-133.069 80.691-178.107 3.55-3.123 3.909-8.499 0.768-12.032-3.106-3.567-8.499-3.909-12.049-0.802-54.971 48.281-86.494 117.863-86.494 190.942 0 139.981 113.886 253.867 253.867 253.867 139.964 0 253.866-113.886 253.866-253.867s-113.851-253.867-253.832-253.867z" />
<glyph unicode="&#xeb60;" glyph-name="Photo-2" d="M460.8-32h-409.6c-4.71 0-8.534 3.84-8.534 8.534v494.933c0 4.711 3.823 8.534 8.534 8.534h409.6c4.694 0 8.534-3.823 8.534-8.534v-494.933c0-4.693-3.84-8.534-8.534-8.534zM59.733-14.933h392.534v477.866h-392.534v-477.866zM371.37 206.933h-222.788c-2.97 0-5.718 1.553-7.287 4.062-1.553 2.509-1.673 5.683-0.341 8.329l49.749 97.297c1.126 2.185 3.141 3.789 5.53 4.386 2.389 0.614 4.933 0.137 6.946-1.263l49.238-34.236 48.709 84.65c1.604 2.816 4.539 4.522 7.936 4.267 3.209-0.205 6.041-2.236 7.339-5.223l62.839-150.459c1.092-2.628 0.802-5.649-0.768-8.005-1.587-2.373-4.25-3.806-7.099-3.806zM162.526 224h196.027l-51.234 122.692-44.714-77.738c-1.195-2.082-3.209-3.55-5.529-4.079-2.304-0.529-4.762-0.034-6.742 1.314l-48.845 33.963-38.963-76.151zM183.637 345.856c-16.47 0-29.867 13.398-29.867 29.866s13.398 29.867 29.867 29.867c16.47 0 29.867-13.397 29.867-29.867s-13.398-29.866-29.867-29.866zM183.637 388.522c-7.065 0-12.8-5.734-12.8-12.8s5.734-12.8 12.8-12.8c7.065 0 12.8 5.734 12.8 12.8s-5.734 12.8-12.8 12.8zM418.134 138.666h-324.267c-4.71 0-8.534 3.84-8.534 8.534v273.067c0 4.71 3.823 8.534 8.534 8.534h324.267c4.693 0 8.534-3.823 8.534-8.534v-273.067c0-4.694-3.84-8.534-8.534-8.534zM102.4 155.733h307.2v256h-307.2v-256zM187.733 70.4h-85.334c-4.71 0-8.534 3.84-8.534 8.534s3.823 8.534 8.534 8.534h85.334c4.71 0 8.534-3.84 8.534-8.534s-3.823-8.534-8.534-8.534zM341.334 36.267h-238.934c-4.71 0-8.534 3.84-8.534 8.534s3.823 8.534 8.534 8.534h238.934c4.694 0 8.534-3.84 8.534-8.534s-3.84-8.534-8.534-8.534z" />
<glyph unicode="&#xeb66;" glyph-name="Photos" d="M365.517-32h-270.216c-47.838 0-86.75 38.912-86.75 86.767v287.3c0 47.821 38.912 86.75 86.75 86.75h270.216c47.838 0 86.75-38.912 86.75-86.75v-287.3c0-47.855-38.912-86.767-86.75-86.767zM95.283 411.733c-38.417 0-69.683-31.249-69.683-69.683v-287.317c0-38.4 31.266-69.666 69.683-69.666h270.216c38.417 0 69.683 31.232 69.683 69.666v287.317c0 38.417-31.266 69.683-69.683 69.683h-270.216zM444.519 24.678l-5.735 16.043c28.058 10.001 47.616 37 47.616 65.69v286.839c0 37.769-32.973 69.683-72.005 69.683h-260.745c-26.215 0-49.971-14.575-62.037-38.041l-15.189 7.8c15.002 29.167 44.578 47.309 77.21 47.309h260.745c48.281 0 89.071-39.714 89.071-86.75v-286.839c0.017-36.318-23.671-69.137-58.931-81.733zM25.6 70.4h409.6v-17.067h-409.6v17.067zM401.374 138.666h-338.978c-3.209 0-6.11 1.775-7.578 4.625s-1.229 6.247 0.614 8.858l104.294 147.661c2.304 3.277 6.588 4.506 10.257 2.952l46.080-19.286 74.24 96.256c1.792 2.373 4.745 3.618 7.731 3.26 2.969-0.341 5.546-2.201 6.793-4.915l104.277-227.294c1.212-2.646 0.99-5.735-0.58-8.175-1.553-2.44-4.25-3.942-7.151-3.942zM78.882 155.733h309.18l-92.86 202.377-69.632-90.266c-2.373-3.055-6.502-4.147-10.053-2.646l-45.807 19.166-90.829-128.632zM114.517 319.539c-19.081 0-34.594 15.53-34.594 34.611s15.513 34.594 34.594 34.594c19.097 0 34.611-15.531 34.611-34.611s-15.513-34.594-34.611-34.594zM114.517 371.678c-9.659 0-17.528-7.868-17.528-17.544s7.85-17.545 17.528-17.545 17.545 7.868 17.545 17.545-7.868 17.544-17.544 17.544z" />
<glyph unicode="&#xeb7a;" glyph-name="Pizza-Slice" d="M505.173 119.296c-4.693 0-8.534 3.84-8.534 8.534 0 183.859-149.606 333.483-333.466 333.483-4.71 0-8.534 3.823-8.534 8.534s3.823 8.534 8.534 8.534c193.263 0 350.533-157.235 350.533-350.55 0-4.711-3.84-8.534-8.534-8.534zM6.843-30.361c-2.236 0-4.403 0.87-6.042 2.491-2.219 2.202-3.038 5.478-2.134 8.499l138.649 458.666c1.365 4.522 6.161 7.065 10.632 5.7 4.523-1.365 7.065-6.127 5.701-10.632l-134.042-443.409 443.426 134.041c4.488 1.365 9.267-1.195 10.632-5.7 1.365-4.522-1.178-9.267-5.7-10.632l-458.683-138.667c-0.785-0.239-1.622-0.358-2.441-0.358zM230.844 321.639c-28.228 0-51.2 22.971-51.2 51.2s22.971 51.2 51.2 51.2c28.228 0 51.2-22.971 51.2-51.2s-22.971-51.2-51.2-51.2zM230.844 406.971c-18.841 0-34.133-15.309-34.133-34.133s15.292-34.134 34.133-34.134c18.825 0 34.133 15.309 34.133 34.133s-15.326 34.134-34.133 34.134zM166.844 86.971c-28.228 0-51.2 22.971-51.2 51.2s22.972 51.2 51.2 51.2c28.228 0 51.2-22.971 51.2-51.2s-22.971-51.2-51.2-51.2zM166.844 172.305c-18.841 0-34.133-15.291-34.133-34.133s15.292-34.134 34.133-34.134c18.825 0 34.133 15.291 34.133 34.134s-15.326 34.134-34.133 34.134zM401.493 150.971c-28.228 0-51.2 22.971-51.2 51.2s22.971 51.2 51.2 51.2 51.2-22.971 51.2-51.2c0-28.245-22.954-51.2-51.2-51.2zM401.493 236.305c-18.841 0-34.133-15.309-34.133-34.133 0-18.841 15.291-34.134 34.134-34.134s34.134 15.291 34.134 34.134c0 18.825-15.291 34.133-34.134 34.133zM252.177 214.971c-2.184 0-4.369 0.837-6.042 2.491-3.328 3.328-3.328 8.738 0 12.066l42.666 42.667c3.328 3.328 8.738 3.328 12.066 0s3.328-8.738 0-12.066l-42.666-42.667c-1.656-1.656-3.84-2.491-6.024-2.491zM60.177 22.971c-2.184 0-4.369 0.837-6.041 2.491-3.328 3.311-3.328 8.738 0 12.066l42.666 42.666c3.328 3.311 8.738 3.311 12.066 0 3.328-3.328 3.328-8.755 0-12.066l-42.666-42.666c-1.656-1.656-3.84-2.491-6.025-2.491zM188.177 236.305c-2.184 0-4.369 0.837-6.042 2.492l-42.666 42.667c-3.328 3.328-3.328 8.738 0 12.066s8.738 3.328 12.066 0l42.667-42.666c3.328-3.328 3.328-8.738 0-12.066-1.655-1.655-3.84-2.492-6.024-2.492zM316.16 108.305c-2.168 0-4.369 0.837-6.041 2.491l-42.666 42.666c-3.328 3.311-3.328 8.738 0 12.066 3.328 3.311 8.738 3.311 12.066 0l42.666-42.666c3.328-3.328 3.328-8.755 0-12.066-1.656-1.656-3.823-2.491-6.024-2.491zM380.16 300.305c-2.168 0-4.369 0.837-6.041 2.492l-42.666 42.666c-3.328 3.328-3.328 8.738 0 12.066s8.738 3.328 12.066 0l42.666-42.666c3.328-3.328 3.328-8.738 0-12.066-1.656-1.656-3.823-2.492-6.024-2.492z" />
</font>
</defs>
</svg>
